%TF.GenerationSoftware,KiCad,Pcbnew,9.0.3*%
%TF.CreationDate,2025-08-15T19:30:48-04:00*%
%TF.ProjectId,M.2-to-Serial-RPI-3P-Debug-UART,4d2e322d-746f-42d5-9365-7269616c2d52,rev?*%
%TF.SameCoordinates,Original*%
%TF.FileFunction,Paste,Top*%
%TF.FilePolarity,Positive*%
%FSLAX46Y46*%
G04 Gerber Fmt 4.6, Leading zero omitted, Abs format (unit mm)*
G04 Created by KiCad (PCBNEW 9.0.3) date 2025-08-15 19:30:48*
%MOMM*%
%LPD*%
G01*
G04 APERTURE LIST*
G04 Aperture macros list*
%AMRoundRect*
0 Rectangle with rounded corners*
0 $1 Rounding radius*
0 $2 $3 $4 $5 $6 $7 $8 $9 X,Y pos of 4 corners*
0 Add a 4 corners polygon primitive as box body*
4,1,4,$2,$3,$4,$5,$6,$7,$8,$9,$2,$3,0*
0 Add four circle primitives for the rounded corners*
1,1,$1+$1,$2,$3*
1,1,$1+$1,$4,$5*
1,1,$1+$1,$6,$7*
1,1,$1+$1,$8,$9*
0 Add four rect primitives between the rounded corners*
20,1,$1+$1,$2,$3,$4,$5,0*
20,1,$1+$1,$4,$5,$6,$7,0*
20,1,$1+$1,$6,$7,$8,$9,0*
20,1,$1+$1,$8,$9,$2,$3,0*%
G04 Aperture macros list end*
%ADD10C,0.000000*%
%ADD11RoundRect,0.140000X0.140000X0.170000X-0.140000X0.170000X-0.140000X-0.170000X0.140000X-0.170000X0*%
%ADD12RoundRect,0.135000X0.185000X-0.135000X0.185000X0.135000X-0.185000X0.135000X-0.185000X-0.135000X0*%
%ADD13RoundRect,0.140000X0.170000X-0.140000X0.170000X0.140000X-0.170000X0.140000X-0.170000X-0.140000X0*%
%ADD14RoundRect,0.150000X0.150000X0.625000X-0.150000X0.625000X-0.150000X-0.625000X0.150000X-0.625000X0*%
%ADD15RoundRect,0.250000X0.350000X0.650000X-0.350000X0.650000X-0.350000X-0.650000X0.350000X-0.650000X0*%
%ADD16RoundRect,0.135000X-0.185000X0.135000X-0.185000X-0.135000X0.185000X-0.135000X0.185000X0.135000X0*%
%ADD17RoundRect,0.050000X0.300000X-0.050000X0.300000X0.050000X-0.300000X0.050000X-0.300000X-0.050000X0*%
%ADD18RoundRect,0.050000X0.250000X-0.050000X0.250000X0.050000X-0.250000X0.050000X-0.250000X-0.050000X0*%
%ADD19RoundRect,0.050000X0.050000X0.250000X-0.050000X0.250000X-0.050000X-0.250000X0.050000X-0.250000X0*%
%ADD20RoundRect,0.140000X-0.170000X0.140000X-0.170000X-0.140000X0.170000X-0.140000X0.170000X0.140000X0*%
%ADD21R,1.250000X0.900000*%
%ADD22R,0.900000X0.800000*%
G04 APERTURE END LIST*
D10*
%TO.C,U3*%
G36*
X129918198Y-134565000D02*
G01*
X129600000Y-134883198D01*
X129281802Y-134565000D01*
X129600000Y-134246802D01*
X129918198Y-134565000D01*
G37*
G36*
X129380000Y-134135000D02*
G01*
X129200000Y-134315000D01*
X129170000Y-134315000D01*
X129170000Y-133915000D01*
X129380000Y-133915000D01*
X129380000Y-134135000D01*
G37*
G36*
X129380000Y-134995000D02*
G01*
X129380000Y-135215000D01*
X129170000Y-135215000D01*
X129170000Y-134815000D01*
X129200000Y-134815000D01*
X129380000Y-134995000D01*
G37*
G36*
X130030000Y-134315000D02*
G01*
X130000000Y-134315000D01*
X129820000Y-134135000D01*
X129820000Y-133915000D01*
X130030000Y-133915000D01*
X130030000Y-134315000D01*
G37*
G36*
X130030000Y-135215000D02*
G01*
X129820000Y-135215000D01*
X129820000Y-134995000D01*
X130000000Y-134815000D01*
X130030000Y-134815000D01*
X130030000Y-135215000D01*
G37*
%TD*%
D11*
%TO.C,C6*%
X129990000Y-133240000D03*
X129030000Y-133240000D03*
%TD*%
%TO.C,C5*%
X130080000Y-136205000D03*
X129120000Y-136205000D03*
%TD*%
D12*
%TO.C,R1*%
X126760000Y-122685000D03*
X126760000Y-121665000D03*
%TD*%
D13*
%TO.C,C1*%
X123675000Y-128760000D03*
X123675000Y-127800000D03*
%TD*%
D14*
%TO.C,J2*%
X126760000Y-118220000D03*
X125760000Y-118220000D03*
X124760000Y-118220000D03*
D15*
X128060000Y-114345000D03*
X123460000Y-114345000D03*
%TD*%
D12*
%TO.C,R4*%
X135605000Y-129655000D03*
X135605000Y-128635000D03*
%TD*%
D16*
%TO.C,R2*%
X124760000Y-121665000D03*
X124760000Y-122685000D03*
%TD*%
D17*
%TO.C,U1*%
X126380000Y-129645000D03*
D18*
X126430000Y-129245000D03*
D19*
X126230000Y-128645000D03*
X125830000Y-128645000D03*
X125430000Y-128645000D03*
D18*
X125230000Y-129245000D03*
X125230000Y-129645000D03*
D19*
X125430000Y-130245000D03*
X125830000Y-130245000D03*
X126230000Y-130245000D03*
%TD*%
D13*
%TO.C,C3*%
X131610000Y-128775000D03*
X131610000Y-127815000D03*
%TD*%
D17*
%TO.C,U2*%
X134165000Y-129655000D03*
D18*
X134215000Y-129255000D03*
D19*
X134015000Y-128655000D03*
X133615000Y-128655000D03*
X133215000Y-128655000D03*
D18*
X133015000Y-129255000D03*
X133015000Y-129655000D03*
D19*
X133215000Y-130255000D03*
X133615000Y-130255000D03*
X134015000Y-130255000D03*
%TD*%
D20*
%TO.C,C4*%
X131610000Y-130135000D03*
X131610000Y-131095000D03*
%TD*%
%TO.C,C2*%
X123675000Y-130130000D03*
X123675000Y-131090000D03*
%TD*%
D21*
%TO.C,SW1*%
X138572500Y-126195000D03*
X138572500Y-123195000D03*
X138572500Y-121695000D03*
D22*
X139597500Y-127745000D03*
X141697500Y-127745000D03*
X139597500Y-120145000D03*
X141697500Y-120145000D03*
%TD*%
D12*
%TO.C,R3*%
X127730000Y-129645000D03*
X127730000Y-128625000D03*
%TD*%
M02*
