%TF.GenerationSoftware,KiCad,Pcbnew,9.0.3*%
%TF.CreationDate,2025-08-15T19:30:48-04:00*%
%TF.ProjectId,M.2-to-Serial-RPI-3P-Debug-UART,4d2e322d-746f-42d5-9365-7269616c2d52,rev?*%
%TF.SameCoordinates,Original*%
%TF.FileFunction,Legend,Bot*%
%TF.FilePolarity,Positive*%
%FSLAX46Y46*%
G04 Gerber Fmt 4.6, Leading zero omitted, Abs format (unit mm)*
G04 Created by KiCad (PCBNEW 9.0.3) date 2025-08-15 19:30:48*
%MOMM*%
%LPD*%
G01*
G04 APERTURE LIST*
%ADD10C,0.150000*%
G04 APERTURE END LIST*
D10*
X140629999Y-118839847D02*
X140629999Y-117839847D01*
X140629999Y-117839847D02*
X140296666Y-118554132D01*
X140296666Y-118554132D02*
X139963333Y-117839847D01*
X139963333Y-117839847D02*
X139963333Y-118839847D01*
X139487142Y-118744608D02*
X139439523Y-118792228D01*
X139439523Y-118792228D02*
X139487142Y-118839847D01*
X139487142Y-118839847D02*
X139534761Y-118792228D01*
X139534761Y-118792228D02*
X139487142Y-118744608D01*
X139487142Y-118744608D02*
X139487142Y-118839847D01*
X139058571Y-117935085D02*
X139010952Y-117887466D01*
X139010952Y-117887466D02*
X138915714Y-117839847D01*
X138915714Y-117839847D02*
X138677619Y-117839847D01*
X138677619Y-117839847D02*
X138582381Y-117887466D01*
X138582381Y-117887466D02*
X138534762Y-117935085D01*
X138534762Y-117935085D02*
X138487143Y-118030323D01*
X138487143Y-118030323D02*
X138487143Y-118125561D01*
X138487143Y-118125561D02*
X138534762Y-118268418D01*
X138534762Y-118268418D02*
X139106190Y-118839847D01*
X139106190Y-118839847D02*
X138487143Y-118839847D01*
X137439523Y-118173180D02*
X137058571Y-118173180D01*
X137296666Y-117839847D02*
X137296666Y-118696989D01*
X137296666Y-118696989D02*
X137249047Y-118792228D01*
X137249047Y-118792228D02*
X137153809Y-118839847D01*
X137153809Y-118839847D02*
X137058571Y-118839847D01*
X136582380Y-118839847D02*
X136677618Y-118792228D01*
X136677618Y-118792228D02*
X136725237Y-118744608D01*
X136725237Y-118744608D02*
X136772856Y-118649370D01*
X136772856Y-118649370D02*
X136772856Y-118363656D01*
X136772856Y-118363656D02*
X136725237Y-118268418D01*
X136725237Y-118268418D02*
X136677618Y-118220799D01*
X136677618Y-118220799D02*
X136582380Y-118173180D01*
X136582380Y-118173180D02*
X136439523Y-118173180D01*
X136439523Y-118173180D02*
X136344285Y-118220799D01*
X136344285Y-118220799D02*
X136296666Y-118268418D01*
X136296666Y-118268418D02*
X136249047Y-118363656D01*
X136249047Y-118363656D02*
X136249047Y-118649370D01*
X136249047Y-118649370D02*
X136296666Y-118744608D01*
X136296666Y-118744608D02*
X136344285Y-118792228D01*
X136344285Y-118792228D02*
X136439523Y-118839847D01*
X136439523Y-118839847D02*
X136582380Y-118839847D01*
X134487142Y-118839847D02*
X134820475Y-118363656D01*
X135058570Y-118839847D02*
X135058570Y-117839847D01*
X135058570Y-117839847D02*
X134677618Y-117839847D01*
X134677618Y-117839847D02*
X134582380Y-117887466D01*
X134582380Y-117887466D02*
X134534761Y-117935085D01*
X134534761Y-117935085D02*
X134487142Y-118030323D01*
X134487142Y-118030323D02*
X134487142Y-118173180D01*
X134487142Y-118173180D02*
X134534761Y-118268418D01*
X134534761Y-118268418D02*
X134582380Y-118316037D01*
X134582380Y-118316037D02*
X134677618Y-118363656D01*
X134677618Y-118363656D02*
X135058570Y-118363656D01*
X134058570Y-118839847D02*
X134058570Y-117839847D01*
X134058570Y-117839847D02*
X133677618Y-117839847D01*
X133677618Y-117839847D02*
X133582380Y-117887466D01*
X133582380Y-117887466D02*
X133534761Y-117935085D01*
X133534761Y-117935085D02*
X133487142Y-118030323D01*
X133487142Y-118030323D02*
X133487142Y-118173180D01*
X133487142Y-118173180D02*
X133534761Y-118268418D01*
X133534761Y-118268418D02*
X133582380Y-118316037D01*
X133582380Y-118316037D02*
X133677618Y-118363656D01*
X133677618Y-118363656D02*
X134058570Y-118363656D01*
X133058570Y-118839847D02*
X133058570Y-117839847D01*
X131820475Y-117839847D02*
X131820475Y-118649370D01*
X131820475Y-118649370D02*
X131772856Y-118744608D01*
X131772856Y-118744608D02*
X131725237Y-118792228D01*
X131725237Y-118792228D02*
X131629999Y-118839847D01*
X131629999Y-118839847D02*
X131439523Y-118839847D01*
X131439523Y-118839847D02*
X131344285Y-118792228D01*
X131344285Y-118792228D02*
X131296666Y-118744608D01*
X131296666Y-118744608D02*
X131249047Y-118649370D01*
X131249047Y-118649370D02*
X131249047Y-117839847D01*
X130820475Y-118554132D02*
X130344285Y-118554132D01*
X130915713Y-118839847D02*
X130582380Y-117839847D01*
X130582380Y-117839847D02*
X130249047Y-118839847D01*
X129344285Y-118839847D02*
X129677618Y-118363656D01*
X129915713Y-118839847D02*
X129915713Y-117839847D01*
X129915713Y-117839847D02*
X129534761Y-117839847D01*
X129534761Y-117839847D02*
X129439523Y-117887466D01*
X129439523Y-117887466D02*
X129391904Y-117935085D01*
X129391904Y-117935085D02*
X129344285Y-118030323D01*
X129344285Y-118030323D02*
X129344285Y-118173180D01*
X129344285Y-118173180D02*
X129391904Y-118268418D01*
X129391904Y-118268418D02*
X129439523Y-118316037D01*
X129439523Y-118316037D02*
X129534761Y-118363656D01*
X129534761Y-118363656D02*
X129915713Y-118363656D01*
X129058570Y-117839847D02*
X128487142Y-117839847D01*
X128772856Y-118839847D02*
X128772856Y-117839847D01*
X127534760Y-117839847D02*
X127201427Y-118839847D01*
X127201427Y-118839847D02*
X126868094Y-117839847D01*
X126010951Y-118839847D02*
X126582379Y-118839847D01*
X126296665Y-118839847D02*
X126296665Y-117839847D01*
X126296665Y-117839847D02*
X126391903Y-117982704D01*
X126391903Y-117982704D02*
X126487141Y-118077942D01*
X126487141Y-118077942D02*
X126582379Y-118125561D01*
X125582379Y-118744608D02*
X125534760Y-118792228D01*
X125534760Y-118792228D02*
X125582379Y-118839847D01*
X125582379Y-118839847D02*
X125629998Y-118792228D01*
X125629998Y-118792228D02*
X125582379Y-118744608D01*
X125582379Y-118744608D02*
X125582379Y-118839847D01*
X124915713Y-117839847D02*
X124820475Y-117839847D01*
X124820475Y-117839847D02*
X124725237Y-117887466D01*
X124725237Y-117887466D02*
X124677618Y-117935085D01*
X124677618Y-117935085D02*
X124629999Y-118030323D01*
X124629999Y-118030323D02*
X124582380Y-118220799D01*
X124582380Y-118220799D02*
X124582380Y-118458894D01*
X124582380Y-118458894D02*
X124629999Y-118649370D01*
X124629999Y-118649370D02*
X124677618Y-118744608D01*
X124677618Y-118744608D02*
X124725237Y-118792228D01*
X124725237Y-118792228D02*
X124820475Y-118839847D01*
X124820475Y-118839847D02*
X124915713Y-118839847D01*
X124915713Y-118839847D02*
X125010951Y-118792228D01*
X125010951Y-118792228D02*
X125058570Y-118744608D01*
X125058570Y-118744608D02*
X125106189Y-118649370D01*
X125106189Y-118649370D02*
X125153808Y-118458894D01*
X125153808Y-118458894D02*
X125153808Y-118220799D01*
X125153808Y-118220799D02*
X125106189Y-118030323D01*
X125106189Y-118030323D02*
X125058570Y-117935085D01*
X125058570Y-117935085D02*
X125010951Y-117887466D01*
X125010951Y-117887466D02*
X124915713Y-117839847D01*
X137915714Y-119925981D02*
X137772857Y-119973600D01*
X137772857Y-119973600D02*
X137725238Y-120021219D01*
X137725238Y-120021219D02*
X137677619Y-120116457D01*
X137677619Y-120116457D02*
X137677619Y-120259314D01*
X137677619Y-120259314D02*
X137725238Y-120354552D01*
X137725238Y-120354552D02*
X137772857Y-120402172D01*
X137772857Y-120402172D02*
X137868095Y-120449791D01*
X137868095Y-120449791D02*
X138249047Y-120449791D01*
X138249047Y-120449791D02*
X138249047Y-119449791D01*
X138249047Y-119449791D02*
X137915714Y-119449791D01*
X137915714Y-119449791D02*
X137820476Y-119497410D01*
X137820476Y-119497410D02*
X137772857Y-119545029D01*
X137772857Y-119545029D02*
X137725238Y-119640267D01*
X137725238Y-119640267D02*
X137725238Y-119735505D01*
X137725238Y-119735505D02*
X137772857Y-119830743D01*
X137772857Y-119830743D02*
X137820476Y-119878362D01*
X137820476Y-119878362D02*
X137915714Y-119925981D01*
X137915714Y-119925981D02*
X138249047Y-119925981D01*
X137344285Y-119783124D02*
X137106190Y-120449791D01*
X136868095Y-119783124D02*
X137106190Y-120449791D01*
X137106190Y-120449791D02*
X137201428Y-120687886D01*
X137201428Y-120687886D02*
X137249047Y-120735505D01*
X137249047Y-120735505D02*
X137344285Y-120783124D01*
X135772856Y-120402172D02*
X135629999Y-120449791D01*
X135629999Y-120449791D02*
X135391904Y-120449791D01*
X135391904Y-120449791D02*
X135296666Y-120402172D01*
X135296666Y-120402172D02*
X135249047Y-120354552D01*
X135249047Y-120354552D02*
X135201428Y-120259314D01*
X135201428Y-120259314D02*
X135201428Y-120164076D01*
X135201428Y-120164076D02*
X135249047Y-120068838D01*
X135249047Y-120068838D02*
X135296666Y-120021219D01*
X135296666Y-120021219D02*
X135391904Y-119973600D01*
X135391904Y-119973600D02*
X135582380Y-119925981D01*
X135582380Y-119925981D02*
X135677618Y-119878362D01*
X135677618Y-119878362D02*
X135725237Y-119830743D01*
X135725237Y-119830743D02*
X135772856Y-119735505D01*
X135772856Y-119735505D02*
X135772856Y-119640267D01*
X135772856Y-119640267D02*
X135725237Y-119545029D01*
X135725237Y-119545029D02*
X135677618Y-119497410D01*
X135677618Y-119497410D02*
X135582380Y-119449791D01*
X135582380Y-119449791D02*
X135344285Y-119449791D01*
X135344285Y-119449791D02*
X135201428Y-119497410D01*
X134344285Y-119783124D02*
X134344285Y-120449791D01*
X134772856Y-119783124D02*
X134772856Y-120306933D01*
X134772856Y-120306933D02*
X134725237Y-120402172D01*
X134725237Y-120402172D02*
X134629999Y-120449791D01*
X134629999Y-120449791D02*
X134487142Y-120449791D01*
X134487142Y-120449791D02*
X134391904Y-120402172D01*
X134391904Y-120402172D02*
X134344285Y-120354552D01*
X133868094Y-119783124D02*
X133868094Y-120783124D01*
X133868094Y-119830743D02*
X133772856Y-119783124D01*
X133772856Y-119783124D02*
X133582380Y-119783124D01*
X133582380Y-119783124D02*
X133487142Y-119830743D01*
X133487142Y-119830743D02*
X133439523Y-119878362D01*
X133439523Y-119878362D02*
X133391904Y-119973600D01*
X133391904Y-119973600D02*
X133391904Y-120259314D01*
X133391904Y-120259314D02*
X133439523Y-120354552D01*
X133439523Y-120354552D02*
X133487142Y-120402172D01*
X133487142Y-120402172D02*
X133582380Y-120449791D01*
X133582380Y-120449791D02*
X133772856Y-120449791D01*
X133772856Y-120449791D02*
X133868094Y-120402172D01*
X132582380Y-120402172D02*
X132677618Y-120449791D01*
X132677618Y-120449791D02*
X132868094Y-120449791D01*
X132868094Y-120449791D02*
X132963332Y-120402172D01*
X132963332Y-120402172D02*
X133010951Y-120306933D01*
X133010951Y-120306933D02*
X133010951Y-119925981D01*
X133010951Y-119925981D02*
X132963332Y-119830743D01*
X132963332Y-119830743D02*
X132868094Y-119783124D01*
X132868094Y-119783124D02*
X132677618Y-119783124D01*
X132677618Y-119783124D02*
X132582380Y-119830743D01*
X132582380Y-119830743D02*
X132534761Y-119925981D01*
X132534761Y-119925981D02*
X132534761Y-120021219D01*
X132534761Y-120021219D02*
X133010951Y-120116457D01*
X132106189Y-120449791D02*
X132106189Y-119783124D01*
X132106189Y-119973600D02*
X132058570Y-119878362D01*
X132058570Y-119878362D02*
X132010951Y-119830743D01*
X132010951Y-119830743D02*
X131915713Y-119783124D01*
X131915713Y-119783124D02*
X131820475Y-119783124D01*
X130915713Y-120354552D02*
X130963332Y-120402172D01*
X130963332Y-120402172D02*
X131106189Y-120449791D01*
X131106189Y-120449791D02*
X131201427Y-120449791D01*
X131201427Y-120449791D02*
X131344284Y-120402172D01*
X131344284Y-120402172D02*
X131439522Y-120306933D01*
X131439522Y-120306933D02*
X131487141Y-120211695D01*
X131487141Y-120211695D02*
X131534760Y-120021219D01*
X131534760Y-120021219D02*
X131534760Y-119878362D01*
X131534760Y-119878362D02*
X131487141Y-119687886D01*
X131487141Y-119687886D02*
X131439522Y-119592648D01*
X131439522Y-119592648D02*
X131344284Y-119497410D01*
X131344284Y-119497410D02*
X131201427Y-119449791D01*
X131201427Y-119449791D02*
X131106189Y-119449791D01*
X131106189Y-119449791D02*
X130963332Y-119497410D01*
X130963332Y-119497410D02*
X130915713Y-119545029D01*
X130344284Y-120449791D02*
X130439522Y-120402172D01*
X130439522Y-120402172D02*
X130487141Y-120354552D01*
X130487141Y-120354552D02*
X130534760Y-120259314D01*
X130534760Y-120259314D02*
X130534760Y-119973600D01*
X130534760Y-119973600D02*
X130487141Y-119878362D01*
X130487141Y-119878362D02*
X130439522Y-119830743D01*
X130439522Y-119830743D02*
X130344284Y-119783124D01*
X130344284Y-119783124D02*
X130201427Y-119783124D01*
X130201427Y-119783124D02*
X130106189Y-119830743D01*
X130106189Y-119830743D02*
X130058570Y-119878362D01*
X130058570Y-119878362D02*
X130010951Y-119973600D01*
X130010951Y-119973600D02*
X130010951Y-120259314D01*
X130010951Y-120259314D02*
X130058570Y-120354552D01*
X130058570Y-120354552D02*
X130106189Y-120402172D01*
X130106189Y-120402172D02*
X130201427Y-120449791D01*
X130201427Y-120449791D02*
X130344284Y-120449791D01*
X129439522Y-120449791D02*
X129534760Y-120402172D01*
X129534760Y-120402172D02*
X129582379Y-120354552D01*
X129582379Y-120354552D02*
X129629998Y-120259314D01*
X129629998Y-120259314D02*
X129629998Y-119973600D01*
X129629998Y-119973600D02*
X129582379Y-119878362D01*
X129582379Y-119878362D02*
X129534760Y-119830743D01*
X129534760Y-119830743D02*
X129439522Y-119783124D01*
X129439522Y-119783124D02*
X129296665Y-119783124D01*
X129296665Y-119783124D02*
X129201427Y-119830743D01*
X129201427Y-119830743D02*
X129153808Y-119878362D01*
X129153808Y-119878362D02*
X129106189Y-119973600D01*
X129106189Y-119973600D02*
X129106189Y-120259314D01*
X129106189Y-120259314D02*
X129153808Y-120354552D01*
X129153808Y-120354552D02*
X129201427Y-120402172D01*
X129201427Y-120402172D02*
X129296665Y-120449791D01*
X129296665Y-120449791D02*
X129439522Y-120449791D01*
X128677617Y-120449791D02*
X128677617Y-119449791D01*
X128582379Y-120068838D02*
X128296665Y-120449791D01*
X128296665Y-119783124D02*
X128677617Y-120164076D01*
X127868093Y-120449791D02*
X127868093Y-119783124D01*
X127868093Y-119449791D02*
X127915712Y-119497410D01*
X127915712Y-119497410D02*
X127868093Y-119545029D01*
X127868093Y-119545029D02*
X127820474Y-119497410D01*
X127820474Y-119497410D02*
X127868093Y-119449791D01*
X127868093Y-119449791D02*
X127868093Y-119545029D01*
X127010951Y-120402172D02*
X127106189Y-120449791D01*
X127106189Y-120449791D02*
X127296665Y-120449791D01*
X127296665Y-120449791D02*
X127391903Y-120402172D01*
X127391903Y-120402172D02*
X127439522Y-120306933D01*
X127439522Y-120306933D02*
X127439522Y-119925981D01*
X127439522Y-119925981D02*
X127391903Y-119830743D01*
X127391903Y-119830743D02*
X127296665Y-119783124D01*
X127296665Y-119783124D02*
X127106189Y-119783124D01*
X127106189Y-119783124D02*
X127010951Y-119830743D01*
X127010951Y-119830743D02*
X126963332Y-119925981D01*
X126963332Y-119925981D02*
X126963332Y-120021219D01*
X126963332Y-120021219D02*
X127439522Y-120116457D01*
M02*
