M48
; DRILL file {KiCad 9.0.3} date 2025-08-15T19:30:51-0400
; FORMAT={-:-/ absolute / inch / decimal}
; #@! TF.CreationDate,2025-08-15T19:30:51-04:00
; #@! TF.GenerationSoftware,Kicad,Pcbnew,9.0.3
; #@! TF.FileFunction,Plated,1,2,PTH
FMAT,2
INCH
; #@! TA.AperFunction,Plated,PTH,ViaDrill
T1C0.0118
; #@! TA.AperFunction,Plated,PTH,ComponentDrill
T2C0.1378
%
G90
G05
T1
X4.8305Y-4.9331
X4.8691Y-4.9904
X4.8691Y-5.0963
X4.9118Y-4.8841
X4.9295Y-5.423
X4.9382Y-5.2091
X4.9516Y-4.527
X4.9539Y-4.9927
X5.0163Y-5.3201
X5.0256Y-5.2006
X5.0274Y-4.9411
X5.1102Y-5.0976
X5.1301Y-4.9626
X5.1685Y-5.3626
X5.1726Y-5.2236
X5.1742Y-5.4807
X5.1815Y-5.0967
X5.1976Y-5.3252
X5.2217Y-5.1787
X5.2309Y-4.9925
X5.2758Y-5.4366
X5.3169Y-4.9411
X5.3193Y-5.4368
X5.3427Y-4.7911
X5.4579Y-5.4535
T2
X5.2167Y-4.4346
M30
