%TF.GenerationSoftware,KiCad,Pcbnew,9.0.3*%
%TF.CreationDate,2025-08-15T19:30:48-04:00*%
%TF.ProjectId,M.2-to-Serial-RPI-3P-Debug-UART,4d2e322d-746f-42d5-9365-7269616c2d52,rev?*%
%TF.SameCoordinates,Original*%
%TF.FileFunction,Legend,Top*%
%TF.FilePolarity,Positive*%
%FSLAX46Y46*%
G04 Gerber Fmt 4.6, Leading zero omitted, Abs format (unit mm)*
G04 Created by KiCad (PCBNEW 9.0.3) date 2025-08-15 19:30:48*
%MOMM*%
%LPD*%
G01*
G04 APERTURE LIST*
%ADD10C,0.150000*%
%ADD11C,0.000000*%
%ADD12C,0.120000*%
%ADD13C,0.100000*%
G04 APERTURE END LIST*
D10*
X129348333Y-132454580D02*
X129300714Y-132502200D01*
X129300714Y-132502200D02*
X129157857Y-132549819D01*
X129157857Y-132549819D02*
X129062619Y-132549819D01*
X129062619Y-132549819D02*
X128919762Y-132502200D01*
X128919762Y-132502200D02*
X128824524Y-132406961D01*
X128824524Y-132406961D02*
X128776905Y-132311723D01*
X128776905Y-132311723D02*
X128729286Y-132121247D01*
X128729286Y-132121247D02*
X128729286Y-131978390D01*
X128729286Y-131978390D02*
X128776905Y-131787914D01*
X128776905Y-131787914D02*
X128824524Y-131692676D01*
X128824524Y-131692676D02*
X128919762Y-131597438D01*
X128919762Y-131597438D02*
X129062619Y-131549819D01*
X129062619Y-131549819D02*
X129157857Y-131549819D01*
X129157857Y-131549819D02*
X129300714Y-131597438D01*
X129300714Y-131597438D02*
X129348333Y-131645057D01*
X130205476Y-131549819D02*
X130015000Y-131549819D01*
X130015000Y-131549819D02*
X129919762Y-131597438D01*
X129919762Y-131597438D02*
X129872143Y-131645057D01*
X129872143Y-131645057D02*
X129776905Y-131787914D01*
X129776905Y-131787914D02*
X129729286Y-131978390D01*
X129729286Y-131978390D02*
X129729286Y-132359342D01*
X129729286Y-132359342D02*
X129776905Y-132454580D01*
X129776905Y-132454580D02*
X129824524Y-132502200D01*
X129824524Y-132502200D02*
X129919762Y-132549819D01*
X129919762Y-132549819D02*
X130110238Y-132549819D01*
X130110238Y-132549819D02*
X130205476Y-132502200D01*
X130205476Y-132502200D02*
X130253095Y-132454580D01*
X130253095Y-132454580D02*
X130300714Y-132359342D01*
X130300714Y-132359342D02*
X130300714Y-132121247D01*
X130300714Y-132121247D02*
X130253095Y-132026009D01*
X130253095Y-132026009D02*
X130205476Y-131978390D01*
X130205476Y-131978390D02*
X130110238Y-131930771D01*
X130110238Y-131930771D02*
X129919762Y-131930771D01*
X129919762Y-131930771D02*
X129824524Y-131978390D01*
X129824524Y-131978390D02*
X129776905Y-132026009D01*
X129776905Y-132026009D02*
X129729286Y-132121247D01*
X136086779Y-138481009D02*
X136420112Y-138481009D01*
X136562969Y-139004819D02*
X136086779Y-139004819D01*
X136086779Y-139004819D02*
X136086779Y-138004819D01*
X136086779Y-138004819D02*
X136562969Y-138004819D01*
X129433333Y-137724580D02*
X129385714Y-137772200D01*
X129385714Y-137772200D02*
X129242857Y-137819819D01*
X129242857Y-137819819D02*
X129147619Y-137819819D01*
X129147619Y-137819819D02*
X129004762Y-137772200D01*
X129004762Y-137772200D02*
X128909524Y-137676961D01*
X128909524Y-137676961D02*
X128861905Y-137581723D01*
X128861905Y-137581723D02*
X128814286Y-137391247D01*
X128814286Y-137391247D02*
X128814286Y-137248390D01*
X128814286Y-137248390D02*
X128861905Y-137057914D01*
X128861905Y-137057914D02*
X128909524Y-136962676D01*
X128909524Y-136962676D02*
X129004762Y-136867438D01*
X129004762Y-136867438D02*
X129147619Y-136819819D01*
X129147619Y-136819819D02*
X129242857Y-136819819D01*
X129242857Y-136819819D02*
X129385714Y-136867438D01*
X129385714Y-136867438D02*
X129433333Y-136915057D01*
X130338095Y-136819819D02*
X129861905Y-136819819D01*
X129861905Y-136819819D02*
X129814286Y-137296009D01*
X129814286Y-137296009D02*
X129861905Y-137248390D01*
X129861905Y-137248390D02*
X129957143Y-137200771D01*
X129957143Y-137200771D02*
X130195238Y-137200771D01*
X130195238Y-137200771D02*
X130290476Y-137248390D01*
X130290476Y-137248390D02*
X130338095Y-137296009D01*
X130338095Y-137296009D02*
X130385714Y-137391247D01*
X130385714Y-137391247D02*
X130385714Y-137629342D01*
X130385714Y-137629342D02*
X130338095Y-137724580D01*
X130338095Y-137724580D02*
X130290476Y-137772200D01*
X130290476Y-137772200D02*
X130195238Y-137819819D01*
X130195238Y-137819819D02*
X129957143Y-137819819D01*
X129957143Y-137819819D02*
X129861905Y-137772200D01*
X129861905Y-137772200D02*
X129814286Y-137724580D01*
X124034819Y-122341666D02*
X123558628Y-122674999D01*
X124034819Y-122913094D02*
X123034819Y-122913094D01*
X123034819Y-122913094D02*
X123034819Y-122532142D01*
X123034819Y-122532142D02*
X123082438Y-122436904D01*
X123082438Y-122436904D02*
X123130057Y-122389285D01*
X123130057Y-122389285D02*
X123225295Y-122341666D01*
X123225295Y-122341666D02*
X123368152Y-122341666D01*
X123368152Y-122341666D02*
X123463390Y-122389285D01*
X123463390Y-122389285D02*
X123511009Y-122436904D01*
X123511009Y-122436904D02*
X123558628Y-122532142D01*
X123558628Y-122532142D02*
X123558628Y-122913094D01*
X124034819Y-121389285D02*
X124034819Y-121960713D01*
X124034819Y-121674999D02*
X123034819Y-121674999D01*
X123034819Y-121674999D02*
X123177676Y-121770237D01*
X123177676Y-121770237D02*
X123272914Y-121865475D01*
X123272914Y-121865475D02*
X123320533Y-121960713D01*
X122874580Y-128446666D02*
X122922200Y-128494285D01*
X122922200Y-128494285D02*
X122969819Y-128637142D01*
X122969819Y-128637142D02*
X122969819Y-128732380D01*
X122969819Y-128732380D02*
X122922200Y-128875237D01*
X122922200Y-128875237D02*
X122826961Y-128970475D01*
X122826961Y-128970475D02*
X122731723Y-129018094D01*
X122731723Y-129018094D02*
X122541247Y-129065713D01*
X122541247Y-129065713D02*
X122398390Y-129065713D01*
X122398390Y-129065713D02*
X122207914Y-129018094D01*
X122207914Y-129018094D02*
X122112676Y-128970475D01*
X122112676Y-128970475D02*
X122017438Y-128875237D01*
X122017438Y-128875237D02*
X121969819Y-128732380D01*
X121969819Y-128732380D02*
X121969819Y-128637142D01*
X121969819Y-128637142D02*
X122017438Y-128494285D01*
X122017438Y-128494285D02*
X122065057Y-128446666D01*
X122969819Y-127494285D02*
X122969819Y-128065713D01*
X122969819Y-127779999D02*
X121969819Y-127779999D01*
X121969819Y-127779999D02*
X122112676Y-127875237D01*
X122112676Y-127875237D02*
X122207914Y-127970475D01*
X122207914Y-127970475D02*
X122255533Y-128065713D01*
X125426666Y-119654819D02*
X125426666Y-120369104D01*
X125426666Y-120369104D02*
X125379047Y-120511961D01*
X125379047Y-120511961D02*
X125283809Y-120607200D01*
X125283809Y-120607200D02*
X125140952Y-120654819D01*
X125140952Y-120654819D02*
X125045714Y-120654819D01*
X125855238Y-119750057D02*
X125902857Y-119702438D01*
X125902857Y-119702438D02*
X125998095Y-119654819D01*
X125998095Y-119654819D02*
X126236190Y-119654819D01*
X126236190Y-119654819D02*
X126331428Y-119702438D01*
X126331428Y-119702438D02*
X126379047Y-119750057D01*
X126379047Y-119750057D02*
X126426666Y-119845295D01*
X126426666Y-119845295D02*
X126426666Y-119940533D01*
X126426666Y-119940533D02*
X126379047Y-120083390D01*
X126379047Y-120083390D02*
X125807619Y-120654819D01*
X125807619Y-120654819D02*
X126426666Y-120654819D01*
X137334819Y-129311666D02*
X136858628Y-129644999D01*
X137334819Y-129883094D02*
X136334819Y-129883094D01*
X136334819Y-129883094D02*
X136334819Y-129502142D01*
X136334819Y-129502142D02*
X136382438Y-129406904D01*
X136382438Y-129406904D02*
X136430057Y-129359285D01*
X136430057Y-129359285D02*
X136525295Y-129311666D01*
X136525295Y-129311666D02*
X136668152Y-129311666D01*
X136668152Y-129311666D02*
X136763390Y-129359285D01*
X136763390Y-129359285D02*
X136811009Y-129406904D01*
X136811009Y-129406904D02*
X136858628Y-129502142D01*
X136858628Y-129502142D02*
X136858628Y-129883094D01*
X136668152Y-128454523D02*
X137334819Y-128454523D01*
X136287200Y-128692618D02*
X137001485Y-128930713D01*
X137001485Y-128930713D02*
X137001485Y-128311666D01*
X128394819Y-122341666D02*
X127918628Y-122674999D01*
X128394819Y-122913094D02*
X127394819Y-122913094D01*
X127394819Y-122913094D02*
X127394819Y-122532142D01*
X127394819Y-122532142D02*
X127442438Y-122436904D01*
X127442438Y-122436904D02*
X127490057Y-122389285D01*
X127490057Y-122389285D02*
X127585295Y-122341666D01*
X127585295Y-122341666D02*
X127728152Y-122341666D01*
X127728152Y-122341666D02*
X127823390Y-122389285D01*
X127823390Y-122389285D02*
X127871009Y-122436904D01*
X127871009Y-122436904D02*
X127918628Y-122532142D01*
X127918628Y-122532142D02*
X127918628Y-122913094D01*
X127490057Y-121960713D02*
X127442438Y-121913094D01*
X127442438Y-121913094D02*
X127394819Y-121817856D01*
X127394819Y-121817856D02*
X127394819Y-121579761D01*
X127394819Y-121579761D02*
X127442438Y-121484523D01*
X127442438Y-121484523D02*
X127490057Y-121436904D01*
X127490057Y-121436904D02*
X127585295Y-121389285D01*
X127585295Y-121389285D02*
X127680533Y-121389285D01*
X127680533Y-121389285D02*
X127823390Y-121436904D01*
X127823390Y-121436904D02*
X128394819Y-122008332D01*
X128394819Y-122008332D02*
X128394819Y-121389285D01*
X126591904Y-131790180D02*
X126591904Y-130980657D01*
X126591904Y-130980657D02*
X126544285Y-130885419D01*
X126544285Y-130885419D02*
X126496666Y-130837800D01*
X126496666Y-130837800D02*
X126401428Y-130790180D01*
X126401428Y-130790180D02*
X126210952Y-130790180D01*
X126210952Y-130790180D02*
X126115714Y-130837800D01*
X126115714Y-130837800D02*
X126068095Y-130885419D01*
X126068095Y-130885419D02*
X126020476Y-130980657D01*
X126020476Y-130980657D02*
X126020476Y-131790180D01*
X125020476Y-130790180D02*
X125591904Y-130790180D01*
X125306190Y-130790180D02*
X125306190Y-131790180D01*
X125306190Y-131790180D02*
X125401428Y-131647323D01*
X125401428Y-131647323D02*
X125496666Y-131552085D01*
X125496666Y-131552085D02*
X125591904Y-131504466D01*
X130904580Y-128461666D02*
X130952200Y-128509285D01*
X130952200Y-128509285D02*
X130999819Y-128652142D01*
X130999819Y-128652142D02*
X130999819Y-128747380D01*
X130999819Y-128747380D02*
X130952200Y-128890237D01*
X130952200Y-128890237D02*
X130856961Y-128985475D01*
X130856961Y-128985475D02*
X130761723Y-129033094D01*
X130761723Y-129033094D02*
X130571247Y-129080713D01*
X130571247Y-129080713D02*
X130428390Y-129080713D01*
X130428390Y-129080713D02*
X130237914Y-129033094D01*
X130237914Y-129033094D02*
X130142676Y-128985475D01*
X130142676Y-128985475D02*
X130047438Y-128890237D01*
X130047438Y-128890237D02*
X129999819Y-128747380D01*
X129999819Y-128747380D02*
X129999819Y-128652142D01*
X129999819Y-128652142D02*
X130047438Y-128509285D01*
X130047438Y-128509285D02*
X130095057Y-128461666D01*
X129999819Y-128128332D02*
X129999819Y-127509285D01*
X129999819Y-127509285D02*
X130380771Y-127842618D01*
X130380771Y-127842618D02*
X130380771Y-127699761D01*
X130380771Y-127699761D02*
X130428390Y-127604523D01*
X130428390Y-127604523D02*
X130476009Y-127556904D01*
X130476009Y-127556904D02*
X130571247Y-127509285D01*
X130571247Y-127509285D02*
X130809342Y-127509285D01*
X130809342Y-127509285D02*
X130904580Y-127556904D01*
X130904580Y-127556904D02*
X130952200Y-127604523D01*
X130952200Y-127604523D02*
X130999819Y-127699761D01*
X130999819Y-127699761D02*
X130999819Y-127985475D01*
X130999819Y-127985475D02*
X130952200Y-128080713D01*
X130952200Y-128080713D02*
X130904580Y-128128332D01*
X134376904Y-131800180D02*
X134376904Y-130990657D01*
X134376904Y-130990657D02*
X134329285Y-130895419D01*
X134329285Y-130895419D02*
X134281666Y-130847800D01*
X134281666Y-130847800D02*
X134186428Y-130800180D01*
X134186428Y-130800180D02*
X133995952Y-130800180D01*
X133995952Y-130800180D02*
X133900714Y-130847800D01*
X133900714Y-130847800D02*
X133853095Y-130895419D01*
X133853095Y-130895419D02*
X133805476Y-130990657D01*
X133805476Y-130990657D02*
X133805476Y-131800180D01*
X133376904Y-131704942D02*
X133329285Y-131752561D01*
X133329285Y-131752561D02*
X133234047Y-131800180D01*
X133234047Y-131800180D02*
X132995952Y-131800180D01*
X132995952Y-131800180D02*
X132900714Y-131752561D01*
X132900714Y-131752561D02*
X132853095Y-131704942D01*
X132853095Y-131704942D02*
X132805476Y-131609704D01*
X132805476Y-131609704D02*
X132805476Y-131514466D01*
X132805476Y-131514466D02*
X132853095Y-131371609D01*
X132853095Y-131371609D02*
X133424523Y-130800180D01*
X133424523Y-130800180D02*
X132805476Y-130800180D01*
X130959580Y-130776666D02*
X131007200Y-130824285D01*
X131007200Y-130824285D02*
X131054819Y-130967142D01*
X131054819Y-130967142D02*
X131054819Y-131062380D01*
X131054819Y-131062380D02*
X131007200Y-131205237D01*
X131007200Y-131205237D02*
X130911961Y-131300475D01*
X130911961Y-131300475D02*
X130816723Y-131348094D01*
X130816723Y-131348094D02*
X130626247Y-131395713D01*
X130626247Y-131395713D02*
X130483390Y-131395713D01*
X130483390Y-131395713D02*
X130292914Y-131348094D01*
X130292914Y-131348094D02*
X130197676Y-131300475D01*
X130197676Y-131300475D02*
X130102438Y-131205237D01*
X130102438Y-131205237D02*
X130054819Y-131062380D01*
X130054819Y-131062380D02*
X130054819Y-130967142D01*
X130054819Y-130967142D02*
X130102438Y-130824285D01*
X130102438Y-130824285D02*
X130150057Y-130776666D01*
X130388152Y-129919523D02*
X131054819Y-129919523D01*
X130007200Y-130157618D02*
X130721485Y-130395713D01*
X130721485Y-130395713D02*
X130721485Y-129776666D01*
X122884580Y-130776666D02*
X122932200Y-130824285D01*
X122932200Y-130824285D02*
X122979819Y-130967142D01*
X122979819Y-130967142D02*
X122979819Y-131062380D01*
X122979819Y-131062380D02*
X122932200Y-131205237D01*
X122932200Y-131205237D02*
X122836961Y-131300475D01*
X122836961Y-131300475D02*
X122741723Y-131348094D01*
X122741723Y-131348094D02*
X122551247Y-131395713D01*
X122551247Y-131395713D02*
X122408390Y-131395713D01*
X122408390Y-131395713D02*
X122217914Y-131348094D01*
X122217914Y-131348094D02*
X122122676Y-131300475D01*
X122122676Y-131300475D02*
X122027438Y-131205237D01*
X122027438Y-131205237D02*
X121979819Y-131062380D01*
X121979819Y-131062380D02*
X121979819Y-130967142D01*
X121979819Y-130967142D02*
X122027438Y-130824285D01*
X122027438Y-130824285D02*
X122075057Y-130776666D01*
X122075057Y-130395713D02*
X122027438Y-130348094D01*
X122027438Y-130348094D02*
X121979819Y-130252856D01*
X121979819Y-130252856D02*
X121979819Y-130014761D01*
X121979819Y-130014761D02*
X122027438Y-129919523D01*
X122027438Y-129919523D02*
X122075057Y-129871904D01*
X122075057Y-129871904D02*
X122170295Y-129824285D01*
X122170295Y-129824285D02*
X122265533Y-129824285D01*
X122265533Y-129824285D02*
X122408390Y-129871904D01*
X122408390Y-129871904D02*
X122979819Y-130443332D01*
X122979819Y-130443332D02*
X122979819Y-129824285D01*
X137494700Y-125278332D02*
X137542319Y-125135475D01*
X137542319Y-125135475D02*
X137542319Y-124897380D01*
X137542319Y-124897380D02*
X137494700Y-124802142D01*
X137494700Y-124802142D02*
X137447080Y-124754523D01*
X137447080Y-124754523D02*
X137351842Y-124706904D01*
X137351842Y-124706904D02*
X137256604Y-124706904D01*
X137256604Y-124706904D02*
X137161366Y-124754523D01*
X137161366Y-124754523D02*
X137113747Y-124802142D01*
X137113747Y-124802142D02*
X137066128Y-124897380D01*
X137066128Y-124897380D02*
X137018509Y-125087856D01*
X137018509Y-125087856D02*
X136970890Y-125183094D01*
X136970890Y-125183094D02*
X136923271Y-125230713D01*
X136923271Y-125230713D02*
X136828033Y-125278332D01*
X136828033Y-125278332D02*
X136732795Y-125278332D01*
X136732795Y-125278332D02*
X136637557Y-125230713D01*
X136637557Y-125230713D02*
X136589938Y-125183094D01*
X136589938Y-125183094D02*
X136542319Y-125087856D01*
X136542319Y-125087856D02*
X136542319Y-124849761D01*
X136542319Y-124849761D02*
X136589938Y-124706904D01*
X136542319Y-124373570D02*
X137542319Y-124135475D01*
X137542319Y-124135475D02*
X136828033Y-123944999D01*
X136828033Y-123944999D02*
X137542319Y-123754523D01*
X137542319Y-123754523D02*
X136542319Y-123516428D01*
X137542319Y-122611666D02*
X137542319Y-123183094D01*
X137542319Y-122897380D02*
X136542319Y-122897380D01*
X136542319Y-122897380D02*
X136685176Y-122992618D01*
X136685176Y-122992618D02*
X136780414Y-123087856D01*
X136780414Y-123087856D02*
X136828033Y-123183094D01*
X131465180Y-133803095D02*
X130655657Y-133803095D01*
X130655657Y-133803095D02*
X130560419Y-133850714D01*
X130560419Y-133850714D02*
X130512800Y-133898333D01*
X130512800Y-133898333D02*
X130465180Y-133993571D01*
X130465180Y-133993571D02*
X130465180Y-134184047D01*
X130465180Y-134184047D02*
X130512800Y-134279285D01*
X130512800Y-134279285D02*
X130560419Y-134326904D01*
X130560419Y-134326904D02*
X130655657Y-134374523D01*
X130655657Y-134374523D02*
X131465180Y-134374523D01*
X131465180Y-134755476D02*
X131465180Y-135374523D01*
X131465180Y-135374523D02*
X131084228Y-135041190D01*
X131084228Y-135041190D02*
X131084228Y-135184047D01*
X131084228Y-135184047D02*
X131036609Y-135279285D01*
X131036609Y-135279285D02*
X130988990Y-135326904D01*
X130988990Y-135326904D02*
X130893752Y-135374523D01*
X130893752Y-135374523D02*
X130655657Y-135374523D01*
X130655657Y-135374523D02*
X130560419Y-135326904D01*
X130560419Y-135326904D02*
X130512800Y-135279285D01*
X130512800Y-135279285D02*
X130465180Y-135184047D01*
X130465180Y-135184047D02*
X130465180Y-134898333D01*
X130465180Y-134898333D02*
X130512800Y-134803095D01*
X130512800Y-134803095D02*
X130560419Y-134755476D01*
X129379819Y-129301666D02*
X128903628Y-129634999D01*
X129379819Y-129873094D02*
X128379819Y-129873094D01*
X128379819Y-129873094D02*
X128379819Y-129492142D01*
X128379819Y-129492142D02*
X128427438Y-129396904D01*
X128427438Y-129396904D02*
X128475057Y-129349285D01*
X128475057Y-129349285D02*
X128570295Y-129301666D01*
X128570295Y-129301666D02*
X128713152Y-129301666D01*
X128713152Y-129301666D02*
X128808390Y-129349285D01*
X128808390Y-129349285D02*
X128856009Y-129396904D01*
X128856009Y-129396904D02*
X128903628Y-129492142D01*
X128903628Y-129492142D02*
X128903628Y-129873094D01*
X128379819Y-128968332D02*
X128379819Y-128349285D01*
X128379819Y-128349285D02*
X128760771Y-128682618D01*
X128760771Y-128682618D02*
X128760771Y-128539761D01*
X128760771Y-128539761D02*
X128808390Y-128444523D01*
X128808390Y-128444523D02*
X128856009Y-128396904D01*
X128856009Y-128396904D02*
X128951247Y-128349285D01*
X128951247Y-128349285D02*
X129189342Y-128349285D01*
X129189342Y-128349285D02*
X129284580Y-128396904D01*
X129284580Y-128396904D02*
X129332200Y-128444523D01*
X129332200Y-128444523D02*
X129379819Y-128539761D01*
X129379819Y-128539761D02*
X129379819Y-128825475D01*
X129379819Y-128825475D02*
X129332200Y-128920713D01*
X129332200Y-128920713D02*
X129284580Y-128968332D01*
D11*
%TO.C,G\u002A\u002A\u002A*%
G36*
X140340007Y-113655041D02*
G01*
X140403064Y-113687196D01*
X140465861Y-113717349D01*
X140528352Y-113745482D01*
X140590488Y-113771578D01*
X140652223Y-113795619D01*
X140713509Y-113817588D01*
X140774299Y-113837468D01*
X140834545Y-113855240D01*
X140894199Y-113870888D01*
X140953215Y-113884394D01*
X140974040Y-113888678D01*
X141034786Y-113899714D01*
X141095166Y-113908507D01*
X141155176Y-113915057D01*
X141214816Y-113919365D01*
X141274080Y-113921430D01*
X141332968Y-113921253D01*
X141391475Y-113918833D01*
X141449599Y-113914171D01*
X141507338Y-113907267D01*
X141564688Y-113898121D01*
X141621647Y-113886733D01*
X141678212Y-113873103D01*
X141730031Y-113858545D01*
X141782243Y-113841792D01*
X141834631Y-113822860D01*
X141887041Y-113801823D01*
X141939318Y-113778753D01*
X141991307Y-113753725D01*
X142042853Y-113726813D01*
X142093802Y-113698089D01*
X142144000Y-113667628D01*
X142180515Y-113644049D01*
X142183646Y-113641975D01*
X142183632Y-114226985D01*
X142183630Y-114272909D01*
X142183628Y-114316622D01*
X142183624Y-114358188D01*
X142183618Y-114397673D01*
X142183609Y-114435142D01*
X142183597Y-114470659D01*
X142183582Y-114504291D01*
X142183562Y-114536103D01*
X142183538Y-114566158D01*
X142183508Y-114594524D01*
X142183472Y-114621265D01*
X142183430Y-114646446D01*
X142183381Y-114670132D01*
X142183324Y-114692388D01*
X142183260Y-114713281D01*
X142183186Y-114732874D01*
X142183104Y-114751234D01*
X142183012Y-114768424D01*
X142182910Y-114784512D01*
X142182797Y-114799560D01*
X142182673Y-114813636D01*
X142182536Y-114826804D01*
X142182388Y-114839129D01*
X142182227Y-114850676D01*
X142182052Y-114861511D01*
X142181863Y-114871699D01*
X142181659Y-114881305D01*
X142181441Y-114890394D01*
X142181207Y-114899031D01*
X142180956Y-114907282D01*
X142180689Y-114915211D01*
X142180405Y-114922885D01*
X142180103Y-114930367D01*
X142179782Y-114937724D01*
X142179443Y-114945020D01*
X142179084Y-114952321D01*
X142178706Y-114959692D01*
X142178306Y-114967198D01*
X142177886Y-114974904D01*
X142177444Y-114982876D01*
X142177323Y-114985040D01*
X142171460Y-115072907D01*
X142163637Y-115161806D01*
X142153878Y-115251648D01*
X142142205Y-115342342D01*
X142128642Y-115433800D01*
X142113209Y-115525933D01*
X142095931Y-115618651D01*
X142076830Y-115711865D01*
X142055928Y-115805485D01*
X142033249Y-115899422D01*
X142008814Y-115993587D01*
X141982647Y-116087890D01*
X141954769Y-116182242D01*
X141925205Y-116276553D01*
X141893976Y-116370735D01*
X141861105Y-116464697D01*
X141826614Y-116558352D01*
X141790527Y-116651608D01*
X141752866Y-116744377D01*
X141713654Y-116836569D01*
X141700355Y-116866901D01*
X141661413Y-116953190D01*
X141621342Y-117038317D01*
X141580181Y-117122219D01*
X141537973Y-117204830D01*
X141494758Y-117286084D01*
X141450577Y-117365915D01*
X141405471Y-117444259D01*
X141359483Y-117521050D01*
X141312651Y-117596221D01*
X141265018Y-117669709D01*
X141216625Y-117741446D01*
X141167513Y-117811369D01*
X141117723Y-117879410D01*
X141067295Y-117945506D01*
X141016271Y-118009590D01*
X140964693Y-118071596D01*
X140912600Y-118131460D01*
X140894995Y-118151075D01*
X140882240Y-118165037D01*
X140868366Y-118179973D01*
X140853594Y-118195659D01*
X140838145Y-118211869D01*
X140822239Y-118228379D01*
X140806099Y-118244964D01*
X140789944Y-118261398D01*
X140773997Y-118277457D01*
X140758478Y-118292916D01*
X140743608Y-118307549D01*
X140729609Y-118321131D01*
X140716701Y-118333439D01*
X140706202Y-118343236D01*
X140664834Y-118380719D01*
X140624173Y-118416252D01*
X140584032Y-118449981D01*
X140544225Y-118482049D01*
X140504563Y-118512600D01*
X140464858Y-118541779D01*
X140424924Y-118569731D01*
X140384573Y-118596599D01*
X140343616Y-118622527D01*
X140341061Y-118624102D01*
X140334648Y-118628040D01*
X140328778Y-118631627D01*
X140323766Y-118634673D01*
X140319927Y-118636986D01*
X140317577Y-118638376D01*
X140317106Y-118638640D01*
X140316215Y-118638864D01*
X140314929Y-118638648D01*
X140313033Y-118637867D01*
X140310314Y-118636399D01*
X140306557Y-118634120D01*
X140301548Y-118630906D01*
X140295073Y-118626635D01*
X140287781Y-118621763D01*
X140235658Y-118585649D01*
X140183629Y-118547268D01*
X140131704Y-118506629D01*
X140079892Y-118463742D01*
X140028203Y-118418614D01*
X139976647Y-118371255D01*
X139925233Y-118321673D01*
X139873971Y-118269878D01*
X139822870Y-118215878D01*
X139771941Y-118159682D01*
X139732380Y-118114375D01*
X139677110Y-118048610D01*
X139622502Y-117980739D01*
X139568597Y-117910845D01*
X139515436Y-117839014D01*
X139463061Y-117765330D01*
X139411514Y-117689877D01*
X139360836Y-117612740D01*
X139311068Y-117534004D01*
X139262252Y-117453752D01*
X139214429Y-117372069D01*
X139167641Y-117289040D01*
X139121929Y-117204748D01*
X139077335Y-117119280D01*
X139033900Y-117032718D01*
X138991666Y-116945147D01*
X138950674Y-116856652D01*
X138910965Y-116767318D01*
X138872582Y-116677228D01*
X138835565Y-116586467D01*
X138799955Y-116495120D01*
X138765796Y-116403270D01*
X138733127Y-116311003D01*
X138701990Y-116218403D01*
X138672428Y-116125554D01*
X138644480Y-116032541D01*
X138618189Y-115939448D01*
X138593597Y-115846359D01*
X138570744Y-115753360D01*
X138568631Y-115744388D01*
X138550405Y-115663832D01*
X138533567Y-115583487D01*
X138518146Y-115503540D01*
X138504174Y-115424178D01*
X138491681Y-115345589D01*
X138480697Y-115267959D01*
X138471254Y-115191475D01*
X138463382Y-115116325D01*
X138460356Y-115082947D01*
X138459728Y-115075659D01*
X138458961Y-115066763D01*
X138458112Y-115056922D01*
X138457239Y-115046797D01*
X138456397Y-115037048D01*
X138456085Y-115033425D01*
X138453580Y-115004394D01*
X138453489Y-114819496D01*
X138831027Y-114819496D01*
X138831033Y-114848273D01*
X138831047Y-114875288D01*
X138831069Y-114900612D01*
X138831099Y-114924321D01*
X138831139Y-114946487D01*
X138831189Y-114967184D01*
X138831248Y-114986485D01*
X138831319Y-115004464D01*
X138831400Y-115021194D01*
X138831493Y-115036748D01*
X138831598Y-115051200D01*
X138831716Y-115064624D01*
X138831846Y-115077092D01*
X138831991Y-115088679D01*
X138832149Y-115099457D01*
X138832322Y-115109501D01*
X138832509Y-115118883D01*
X138832712Y-115127676D01*
X138832931Y-115135955D01*
X138833167Y-115143793D01*
X138833419Y-115151263D01*
X138833689Y-115158439D01*
X138833976Y-115165394D01*
X138834282Y-115172201D01*
X138834607Y-115178934D01*
X138834919Y-115185065D01*
X138839843Y-115261135D01*
X138846727Y-115338260D01*
X138855555Y-115416365D01*
X138866310Y-115495377D01*
X138878974Y-115575222D01*
X138893532Y-115655825D01*
X138909965Y-115737114D01*
X138928258Y-115819014D01*
X138948393Y-115901451D01*
X138970353Y-115984351D01*
X138994121Y-116067641D01*
X139019681Y-116151246D01*
X139047015Y-116235092D01*
X139076107Y-116319106D01*
X139106940Y-116403214D01*
X139123817Y-116447382D01*
X139154533Y-116524743D01*
X139186425Y-116601361D01*
X139219451Y-116677165D01*
X139253566Y-116752087D01*
X139288727Y-116826056D01*
X139324890Y-116899004D01*
X139362011Y-116970860D01*
X139400047Y-117041557D01*
X139438953Y-117111023D01*
X139478686Y-117179190D01*
X139519202Y-117245988D01*
X139560458Y-117311348D01*
X139602409Y-117375200D01*
X139645012Y-117437476D01*
X139688224Y-117498105D01*
X139731999Y-117557018D01*
X139776296Y-117614145D01*
X139821069Y-117669418D01*
X139866275Y-117722767D01*
X139911870Y-117774122D01*
X139957811Y-117823415D01*
X140004053Y-117870574D01*
X140047341Y-117912505D01*
X140081959Y-117944597D01*
X140115899Y-117974858D01*
X140149440Y-118003521D01*
X140182861Y-118030819D01*
X140216442Y-118056987D01*
X140246000Y-118079012D01*
X140251335Y-118082867D01*
X140257555Y-118087297D01*
X140264418Y-118092135D01*
X140271681Y-118097214D01*
X140279100Y-118102369D01*
X140286434Y-118107431D01*
X140293440Y-118112235D01*
X140299876Y-118116613D01*
X140305498Y-118120398D01*
X140310063Y-118123425D01*
X140313330Y-118125526D01*
X140315055Y-118126534D01*
X140315241Y-118126598D01*
X140316357Y-118126037D01*
X140319058Y-118124492D01*
X140322988Y-118122171D01*
X140327792Y-118119283D01*
X140330136Y-118117859D01*
X140338026Y-118112964D01*
X140347385Y-118107014D01*
X140357823Y-118100268D01*
X140368951Y-118092983D01*
X140380378Y-118085419D01*
X140391715Y-118077835D01*
X140402571Y-118070490D01*
X140412556Y-118063641D01*
X140421279Y-118057548D01*
X140424168Y-118055495D01*
X140470842Y-118020952D01*
X140517366Y-117984174D01*
X140563700Y-117945198D01*
X140609801Y-117904063D01*
X140655627Y-117860807D01*
X140701138Y-117815468D01*
X140746291Y-117768085D01*
X140791046Y-117718696D01*
X140799704Y-117708858D01*
X140846592Y-117653920D01*
X140892922Y-117596839D01*
X140938647Y-117537689D01*
X140983721Y-117476546D01*
X141028097Y-117413485D01*
X141071729Y-117348580D01*
X141114571Y-117281907D01*
X141156577Y-117213540D01*
X141197700Y-117143555D01*
X141237894Y-117072027D01*
X141277113Y-116999031D01*
X141315310Y-116924641D01*
X141352439Y-116848933D01*
X141388454Y-116771982D01*
X141416587Y-116709226D01*
X141452597Y-116625149D01*
X141487001Y-116540431D01*
X141519769Y-116455180D01*
X141550871Y-116369504D01*
X141580278Y-116283512D01*
X141607963Y-116197312D01*
X141633894Y-116111013D01*
X141658045Y-116024723D01*
X141680384Y-115938550D01*
X141700883Y-115852602D01*
X141719514Y-115766989D01*
X141736247Y-115681819D01*
X141751053Y-115597199D01*
X141763902Y-115513238D01*
X141774766Y-115430045D01*
X141783616Y-115347728D01*
X141784537Y-115337960D01*
X141786177Y-115319820D01*
X141787697Y-115301942D01*
X141789119Y-115284008D01*
X141790464Y-115265701D01*
X141791755Y-115246702D01*
X141793012Y-115226692D01*
X141794258Y-115205352D01*
X141795515Y-115182365D01*
X141796769Y-115158085D01*
X141796890Y-115154917D01*
X141797006Y-115150269D01*
X141797116Y-115144107D01*
X141797222Y-115136394D01*
X141797324Y-115127092D01*
X141797421Y-115116167D01*
X141797514Y-115103582D01*
X141797603Y-115089300D01*
X141797687Y-115073286D01*
X141797768Y-115055503D01*
X141797845Y-115035914D01*
X141797918Y-115014483D01*
X141797987Y-114991175D01*
X141798053Y-114965953D01*
X141798116Y-114938780D01*
X141798176Y-114909620D01*
X141798232Y-114878437D01*
X141798286Y-114845195D01*
X141798336Y-114809857D01*
X141798384Y-114772388D01*
X141798430Y-114732750D01*
X141798472Y-114690907D01*
X141798513Y-114647045D01*
X141798936Y-114162190D01*
X141795762Y-114164276D01*
X141769824Y-114180753D01*
X141742044Y-114197333D01*
X141712831Y-114213804D01*
X141682598Y-114229953D01*
X141651757Y-114245567D01*
X141620717Y-114260432D01*
X141589891Y-114274335D01*
X141559690Y-114287063D01*
X141555789Y-114288638D01*
X141506250Y-114307310D01*
X141456146Y-114323791D01*
X141405527Y-114338069D01*
X141354440Y-114350131D01*
X141302934Y-114359965D01*
X141251057Y-114367559D01*
X141233038Y-114369662D01*
X141196192Y-114373024D01*
X141157957Y-114375260D01*
X141118928Y-114376362D01*
X141079699Y-114376323D01*
X141040864Y-114375137D01*
X141003018Y-114372796D01*
X140999086Y-114372479D01*
X140946864Y-114367160D01*
X140894345Y-114359770D01*
X140841487Y-114350298D01*
X140788250Y-114338733D01*
X140734590Y-114325063D01*
X140680466Y-114309277D01*
X140625837Y-114291364D01*
X140570661Y-114271311D01*
X140514896Y-114249107D01*
X140458500Y-114224742D01*
X140454337Y-114222869D01*
X140440115Y-114216368D01*
X140424703Y-114209170D01*
X140408608Y-114201521D01*
X140392338Y-114193666D01*
X140376402Y-114185853D01*
X140361307Y-114178328D01*
X140347561Y-114171335D01*
X140341756Y-114168327D01*
X140315128Y-114154427D01*
X140298495Y-114163097D01*
X140241153Y-114192056D01*
X140184254Y-114218927D01*
X140127821Y-114243702D01*
X140071879Y-114266374D01*
X140016453Y-114286933D01*
X139961567Y-114305372D01*
X139907245Y-114321682D01*
X139853512Y-114335856D01*
X139800392Y-114347885D01*
X139747909Y-114357762D01*
X139696089Y-114365477D01*
X139690296Y-114366210D01*
X139672487Y-114368365D01*
X139656233Y-114370191D01*
X139641123Y-114371713D01*
X139626743Y-114372956D01*
X139612681Y-114373944D01*
X139598525Y-114374701D01*
X139583860Y-114375254D01*
X139568276Y-114375625D01*
X139551358Y-114375839D01*
X139532694Y-114375922D01*
X139527068Y-114375925D01*
X139510206Y-114375890D01*
X139495256Y-114375780D01*
X139481853Y-114375578D01*
X139469632Y-114375267D01*
X139458230Y-114374829D01*
X139447281Y-114374246D01*
X139436421Y-114373500D01*
X139425285Y-114372575D01*
X139413509Y-114371452D01*
X139400729Y-114370114D01*
X139396146Y-114369614D01*
X139344492Y-114362804D01*
X139293296Y-114353804D01*
X139242498Y-114342601D01*
X139192037Y-114329178D01*
X139141853Y-114313519D01*
X139091887Y-114295610D01*
X139067134Y-114285875D01*
X139036521Y-114272936D01*
X139004888Y-114258533D01*
X138972715Y-114242915D01*
X138940482Y-114226331D01*
X138908668Y-114209028D01*
X138877753Y-114191257D01*
X138848218Y-114173265D01*
X138840582Y-114168427D01*
X138831474Y-114162606D01*
X138831128Y-114605700D01*
X138831097Y-114646597D01*
X138831072Y-114685290D01*
X138831051Y-114721853D01*
X138831037Y-114756359D01*
X138831029Y-114788883D01*
X138831027Y-114819496D01*
X138453489Y-114819496D01*
X138453247Y-114325492D01*
X138452914Y-113646589D01*
X138457196Y-113649181D01*
X138460236Y-113651080D01*
X138464356Y-113653728D01*
X138468745Y-113656604D01*
X138469446Y-113657069D01*
X138474742Y-113660509D01*
X138481661Y-113664884D01*
X138489856Y-113669983D01*
X138498983Y-113675596D01*
X138508695Y-113681512D01*
X138518647Y-113687522D01*
X138528493Y-113693416D01*
X138537887Y-113698982D01*
X138546483Y-113704012D01*
X138550276Y-113706203D01*
X138604664Y-113736244D01*
X138659379Y-113764033D01*
X138714421Y-113789569D01*
X138769789Y-113812853D01*
X138825483Y-113833884D01*
X138881503Y-113852661D01*
X138937848Y-113869186D01*
X138994516Y-113883457D01*
X139051508Y-113895475D01*
X139108824Y-113905239D01*
X139166461Y-113912750D01*
X139224421Y-113918006D01*
X139282701Y-113921009D01*
X139341303Y-113921758D01*
X139400224Y-113920253D01*
X139459465Y-113916493D01*
X139478115Y-113914849D01*
X139537695Y-113908164D01*
X139597734Y-113899269D01*
X139658234Y-113888162D01*
X139719200Y-113874842D01*
X139780637Y-113859309D01*
X139842548Y-113841560D01*
X139904938Y-113821595D01*
X139967811Y-113799412D01*
X140031172Y-113775011D01*
X140095024Y-113748390D01*
X140129878Y-113733015D01*
X140145837Y-113725743D01*
X140163360Y-113717581D01*
X140182018Y-113708739D01*
X140201384Y-113699427D01*
X140221026Y-113689854D01*
X140240517Y-113680231D01*
X140259427Y-113670766D01*
X140277327Y-113661670D01*
X140293788Y-113653152D01*
X140299592Y-113650102D01*
X140315046Y-113641942D01*
X140340007Y-113655041D01*
G37*
G36*
X140355260Y-114876361D02*
G01*
X140400080Y-114879465D01*
X140444761Y-114884820D01*
X140453170Y-114886084D01*
X140497713Y-114894137D01*
X140541639Y-114904363D01*
X140584875Y-114916725D01*
X140627348Y-114931185D01*
X140668987Y-114947706D01*
X140709718Y-114966253D01*
X140749469Y-114986787D01*
X140788166Y-115009272D01*
X140825737Y-115033672D01*
X140862110Y-115059948D01*
X140897212Y-115088066D01*
X140930969Y-115117986D01*
X140953606Y-115139830D01*
X140984780Y-115172564D01*
X141014129Y-115206618D01*
X141041626Y-115241916D01*
X141067246Y-115278383D01*
X141090963Y-115315945D01*
X141112751Y-115354526D01*
X141132586Y-115394051D01*
X141150439Y-115434445D01*
X141166287Y-115475633D01*
X141180103Y-115517540D01*
X141191861Y-115560091D01*
X141201536Y-115603210D01*
X141209101Y-115646822D01*
X141214532Y-115690852D01*
X141217801Y-115735226D01*
X141218884Y-115779868D01*
X141217755Y-115824703D01*
X141214387Y-115869655D01*
X141211897Y-115891817D01*
X141205228Y-115936115D01*
X141196332Y-115980070D01*
X141185251Y-116023568D01*
X141172022Y-116066496D01*
X141156687Y-116108742D01*
X141139283Y-116150191D01*
X141119850Y-116190731D01*
X141098429Y-116230248D01*
X141087511Y-116248722D01*
X141063383Y-116286281D01*
X141037369Y-116322640D01*
X141009565Y-116357702D01*
X140980062Y-116391369D01*
X140948956Y-116423545D01*
X140916338Y-116454131D01*
X140882304Y-116483031D01*
X140846945Y-116510146D01*
X140815491Y-116532003D01*
X140776945Y-116556262D01*
X140737728Y-116578376D01*
X140697792Y-116598361D01*
X140657093Y-116616233D01*
X140615583Y-116632009D01*
X140573216Y-116645704D01*
X140529947Y-116657336D01*
X140485727Y-116666919D01*
X140440513Y-116674471D01*
X140394256Y-116680007D01*
X140391153Y-116680303D01*
X140386387Y-116680653D01*
X140379806Y-116680994D01*
X140371718Y-116681320D01*
X140362427Y-116681626D01*
X140352238Y-116681907D01*
X140341457Y-116682158D01*
X140330389Y-116682374D01*
X140319340Y-116682550D01*
X140308615Y-116682680D01*
X140298520Y-116682759D01*
X140289359Y-116682781D01*
X140281438Y-116682743D01*
X140275062Y-116682638D01*
X140270538Y-116682462D01*
X140269339Y-116682372D01*
X140266601Y-116682145D01*
X140262123Y-116681804D01*
X140256433Y-116681388D01*
X140250062Y-116680936D01*
X140247139Y-116680733D01*
X140218027Y-116678122D01*
X140187741Y-116674270D01*
X140156907Y-116669292D01*
X140126155Y-116663305D01*
X140096111Y-116656423D01*
X140067406Y-116648762D01*
X140057587Y-116645855D01*
X140051373Y-116643969D01*
X140045631Y-116642234D01*
X140040851Y-116640798D01*
X140037522Y-116639808D01*
X140036581Y-116639534D01*
X140034260Y-116638792D01*
X140030223Y-116637424D01*
X140024894Y-116635575D01*
X140018697Y-116633393D01*
X140012673Y-116631247D01*
X139970523Y-116615030D01*
X139929751Y-116597078D01*
X139890242Y-116577320D01*
X139851880Y-116555689D01*
X139814547Y-116532115D01*
X139778128Y-116506531D01*
X139742506Y-116478868D01*
X139716823Y-116457222D01*
X139710541Y-116451585D01*
X139703039Y-116444585D01*
X139694638Y-116436541D01*
X139685653Y-116427772D01*
X139676404Y-116418595D01*
X139667208Y-116409329D01*
X139658383Y-116400291D01*
X139650248Y-116391800D01*
X139643120Y-116384175D01*
X139637317Y-116377732D01*
X139636998Y-116377367D01*
X139607513Y-116341888D01*
X139579997Y-116305313D01*
X139554471Y-116267691D01*
X139530957Y-116229071D01*
X139509477Y-116189500D01*
X139498336Y-116166291D01*
X139773681Y-116166291D01*
X139773929Y-116177110D01*
X139774619Y-116187788D01*
X139775722Y-116197570D01*
X139776862Y-116204141D01*
X139782081Y-116223908D01*
X139789153Y-116242399D01*
X139798146Y-116259737D01*
X139809126Y-116276041D01*
X139822163Y-116291434D01*
X139829544Y-116298895D01*
X139844731Y-116312017D01*
X139860987Y-116323165D01*
X139878375Y-116332370D01*
X139896960Y-116339664D01*
X139916806Y-116345079D01*
X139924957Y-116346699D01*
X139930860Y-116347424D01*
X139938476Y-116347865D01*
X139947259Y-116348035D01*
X139956664Y-116347949D01*
X139966147Y-116347619D01*
X139975162Y-116347059D01*
X139983165Y-116346284D01*
X139989610Y-116345307D01*
X139990816Y-116345054D01*
X140010382Y-116339541D01*
X140029020Y-116332030D01*
X140046590Y-116322626D01*
X140062953Y-116311435D01*
X140077970Y-116298565D01*
X140091502Y-116284120D01*
X140103411Y-116268208D01*
X140113229Y-116251568D01*
X140120724Y-116235091D01*
X140122300Y-116230507D01*
X140497116Y-116230507D01*
X140497149Y-116239110D01*
X140497270Y-116245907D01*
X140497513Y-116251366D01*
X140497910Y-116255959D01*
X140498495Y-116260153D01*
X140499302Y-116264419D01*
X140499632Y-116265967D01*
X140505061Y-116285813D01*
X140512441Y-116304651D01*
X140521676Y-116322360D01*
X140532672Y-116338817D01*
X140545335Y-116353903D01*
X140559569Y-116367494D01*
X140575279Y-116379470D01*
X140592373Y-116389708D01*
X140598351Y-116392710D01*
X140616710Y-116400311D01*
X140635659Y-116405866D01*
X140654939Y-116409328D01*
X140674291Y-116410650D01*
X140693412Y-116409791D01*
X140713814Y-116406616D01*
X140733183Y-116401418D01*
X140751557Y-116394184D01*
X140768977Y-116384899D01*
X140775331Y-116380846D01*
X140791944Y-116368441D01*
X140806774Y-116354627D01*
X140819794Y-116339443D01*
X140830976Y-116322928D01*
X140840295Y-116305122D01*
X140847723Y-116286064D01*
X140853022Y-116266756D01*
X140853880Y-116262612D01*
X140854520Y-116258659D01*
X140854974Y-116254456D01*
X140855273Y-116249562D01*
X140855446Y-116243535D01*
X140855524Y-116235934D01*
X140855539Y-116230507D01*
X140855518Y-116221796D01*
X140855420Y-116214923D01*
X140855214Y-116209449D01*
X140854871Y-116204934D01*
X140854359Y-116200941D01*
X140853651Y-116197031D01*
X140853076Y-116194351D01*
X140847449Y-116174109D01*
X140839913Y-116155063D01*
X140830507Y-116137273D01*
X140819273Y-116120797D01*
X140806251Y-116105694D01*
X140791481Y-116092025D01*
X140775004Y-116079846D01*
X140773955Y-116079160D01*
X140756789Y-116069326D01*
X140738834Y-116061543D01*
X140720275Y-116055809D01*
X140701299Y-116052125D01*
X140682090Y-116050489D01*
X140662833Y-116050899D01*
X140643715Y-116053356D01*
X140624920Y-116057858D01*
X140606634Y-116064404D01*
X140589041Y-116072994D01*
X140577375Y-116080131D01*
X140560915Y-116092435D01*
X140546156Y-116106234D01*
X140533148Y-116121451D01*
X140521942Y-116138015D01*
X140512587Y-116155849D01*
X140505135Y-116174879D01*
X140499635Y-116195032D01*
X140499632Y-116195047D01*
X140498743Y-116199444D01*
X140498086Y-116203610D01*
X140497629Y-116208015D01*
X140497337Y-116213127D01*
X140497179Y-116219417D01*
X140497120Y-116227355D01*
X140497116Y-116230507D01*
X140122300Y-116230507D01*
X140126821Y-116217353D01*
X140130087Y-116204714D01*
X140130994Y-116200420D01*
X140131667Y-116196468D01*
X140132139Y-116192402D01*
X140132442Y-116187764D01*
X140132611Y-116182100D01*
X140132676Y-116174953D01*
X140132676Y-116168461D01*
X140132627Y-116159752D01*
X140132497Y-116152859D01*
X140132252Y-116147322D01*
X140131860Y-116142683D01*
X140131288Y-116138480D01*
X140130503Y-116134255D01*
X140130108Y-116132385D01*
X140124702Y-116112536D01*
X140117357Y-116093874D01*
X140108046Y-116076347D01*
X140096738Y-116059900D01*
X140083405Y-116044482D01*
X140080450Y-116041474D01*
X140065089Y-116027653D01*
X140048840Y-116015929D01*
X140031705Y-116006302D01*
X140013685Y-115998773D01*
X139994782Y-115993343D01*
X139974997Y-115990011D01*
X139961299Y-115988956D01*
X139941190Y-115989197D01*
X139921634Y-115991570D01*
X139902754Y-115995973D01*
X139884671Y-116002301D01*
X139867506Y-116010452D01*
X139851382Y-116020323D01*
X139836420Y-116031811D01*
X139822742Y-116044811D01*
X139810469Y-116059222D01*
X139799724Y-116074940D01*
X139790627Y-116091862D01*
X139783300Y-116109884D01*
X139777866Y-116128903D01*
X139774633Y-116147259D01*
X139773906Y-116156089D01*
X139773681Y-116166291D01*
X139498336Y-116166291D01*
X139490050Y-116149028D01*
X139472699Y-116107704D01*
X139457444Y-116065575D01*
X139444307Y-116022691D01*
X139433309Y-115979101D01*
X139424472Y-115934852D01*
X139417816Y-115889994D01*
X139415537Y-115869618D01*
X139412830Y-115835370D01*
X139411430Y-115799942D01*
X139411339Y-115764015D01*
X139411970Y-115745475D01*
X140135053Y-115745475D01*
X140137087Y-115764673D01*
X140141207Y-115783615D01*
X140147416Y-115802134D01*
X140155715Y-115820065D01*
X140164388Y-115834681D01*
X140176510Y-115851061D01*
X140190193Y-115865823D01*
X140205313Y-115878883D01*
X140221752Y-115890161D01*
X140239389Y-115899575D01*
X140258102Y-115907043D01*
X140277772Y-115912482D01*
X140279585Y-115912869D01*
X140294845Y-115915187D01*
X140311319Y-115916103D01*
X140328414Y-115915601D01*
X140339923Y-115914463D01*
X140359015Y-115910923D01*
X140377270Y-115905365D01*
X140394589Y-115897925D01*
X140410873Y-115888737D01*
X140426023Y-115877938D01*
X140439940Y-115865664D01*
X140452524Y-115852050D01*
X140463677Y-115837232D01*
X140473298Y-115821345D01*
X140481290Y-115804526D01*
X140487552Y-115786910D01*
X140491986Y-115768633D01*
X140494492Y-115749830D01*
X140494972Y-115730638D01*
X140493326Y-115711191D01*
X140492464Y-115705680D01*
X140487985Y-115686230D01*
X140481470Y-115667624D01*
X140473040Y-115649993D01*
X140462817Y-115633468D01*
X140450923Y-115618182D01*
X140437477Y-115604264D01*
X140422603Y-115591847D01*
X140406422Y-115581063D01*
X140389054Y-115572041D01*
X140370622Y-115564914D01*
X140359276Y-115561646D01*
X140339999Y-115557904D01*
X140320445Y-115556282D01*
X140300862Y-115556748D01*
X140281495Y-115559267D01*
X140262590Y-115563806D01*
X140244394Y-115570331D01*
X140227153Y-115578807D01*
X140224946Y-115580080D01*
X140212103Y-115588511D01*
X140199380Y-115598538D01*
X140187299Y-115609677D01*
X140176383Y-115621444D01*
X140167153Y-115633355D01*
X140166572Y-115634200D01*
X140156123Y-115651450D01*
X140147750Y-115669440D01*
X140141455Y-115688003D01*
X140137239Y-115706974D01*
X140135105Y-115726187D01*
X140135053Y-115745475D01*
X139411970Y-115745475D01*
X139412556Y-115728272D01*
X139415082Y-115693395D01*
X139415541Y-115688604D01*
X139420398Y-115649231D01*
X139427194Y-115609333D01*
X139435823Y-115569389D01*
X139446184Y-115529881D01*
X139457859Y-115492221D01*
X139473221Y-115449899D01*
X139490603Y-115408575D01*
X139509947Y-115368309D01*
X139531196Y-115329163D01*
X139554292Y-115291199D01*
X139579179Y-115254479D01*
X139588003Y-115242741D01*
X139773979Y-115242741D01*
X139774121Y-115252880D01*
X139774611Y-115262298D01*
X139775453Y-115270420D01*
X139776201Y-115274776D01*
X139781336Y-115294659D01*
X139788035Y-115313002D01*
X139796410Y-115330019D01*
X139806571Y-115345922D01*
X139818629Y-115360925D01*
X139824117Y-115366834D01*
X139839043Y-115380677D01*
X139855235Y-115392645D01*
X139872592Y-115402685D01*
X139891014Y-115410741D01*
X139910398Y-115416762D01*
X139922620Y-115419405D01*
X139931332Y-115420567D01*
X139941528Y-115421238D01*
X139952579Y-115421431D01*
X139963854Y-115421160D01*
X139974724Y-115420440D01*
X139984561Y-115419284D01*
X139992126Y-115417856D01*
X140010659Y-115412626D01*
X140027551Y-115406109D01*
X140043159Y-115398104D01*
X140057843Y-115388413D01*
X140071960Y-115376836D01*
X140080433Y-115368776D01*
X140092123Y-115356176D01*
X140497116Y-115356176D01*
X140497149Y-115364779D01*
X140497270Y-115371576D01*
X140497513Y-115377035D01*
X140497910Y-115381628D01*
X140498495Y-115385822D01*
X140499302Y-115390088D01*
X140499632Y-115391636D01*
X140505069Y-115411516D01*
X140512456Y-115430375D01*
X140521700Y-115448094D01*
X140532709Y-115464557D01*
X140545392Y-115479643D01*
X140559656Y-115493236D01*
X140575410Y-115505218D01*
X140592562Y-115515469D01*
X140598351Y-115518375D01*
X140617162Y-115526198D01*
X140636350Y-115531818D01*
X140655809Y-115535217D01*
X140675433Y-115536376D01*
X140693412Y-115535460D01*
X140713771Y-115532304D01*
X140733071Y-115527149D01*
X140751400Y-115519967D01*
X140768843Y-115510726D01*
X140773955Y-115507523D01*
X140790471Y-115495469D01*
X140805323Y-115481883D01*
X140818457Y-115466845D01*
X140829818Y-115450434D01*
X140839352Y-115432731D01*
X140847004Y-115413814D01*
X140852719Y-115393762D01*
X140853022Y-115392425D01*
X140853880Y-115388281D01*
X140854520Y-115384328D01*
X140854974Y-115380125D01*
X140855273Y-115375231D01*
X140855446Y-115369204D01*
X140855524Y-115361603D01*
X140855539Y-115356176D01*
X140855518Y-115347465D01*
X140855420Y-115340592D01*
X140855214Y-115335118D01*
X140854871Y-115330603D01*
X140854359Y-115326610D01*
X140853651Y-115322700D01*
X140853076Y-115320020D01*
X140847454Y-115299792D01*
X140839925Y-115280759D01*
X140830531Y-115262984D01*
X140819312Y-115246525D01*
X140806311Y-115231445D01*
X140791568Y-115217803D01*
X140775167Y-115205686D01*
X140757909Y-115195644D01*
X140739893Y-115187673D01*
X140721296Y-115181771D01*
X140702292Y-115177939D01*
X140683057Y-115176176D01*
X140663769Y-115176481D01*
X140644601Y-115178854D01*
X140625731Y-115183295D01*
X140607333Y-115189803D01*
X140589584Y-115198377D01*
X140576648Y-115206268D01*
X140560395Y-115218492D01*
X140545782Y-115232264D01*
X140532875Y-115247489D01*
X140521736Y-115264072D01*
X140512429Y-115281918D01*
X140505017Y-115300934D01*
X140499632Y-115320715D01*
X140498743Y-115325113D01*
X140498086Y-115329279D01*
X140497629Y-115333683D01*
X140497337Y-115338796D01*
X140497179Y-115345086D01*
X140497120Y-115353024D01*
X140497116Y-115356176D01*
X140092123Y-115356176D01*
X140092532Y-115355735D01*
X140102685Y-115342637D01*
X140111185Y-115329014D01*
X140118325Y-115314398D01*
X140124265Y-115298725D01*
X140129523Y-115279465D01*
X140132584Y-115259882D01*
X140133468Y-115240160D01*
X140132197Y-115220487D01*
X140128793Y-115201048D01*
X140123276Y-115182029D01*
X140115667Y-115163616D01*
X140106939Y-115147536D01*
X140098678Y-115135435D01*
X140088772Y-115123322D01*
X140077771Y-115111796D01*
X140066225Y-115101455D01*
X140060433Y-115096925D01*
X140043922Y-115086057D01*
X140026442Y-115077171D01*
X140008180Y-115070288D01*
X139989325Y-115065432D01*
X139970067Y-115062624D01*
X139950595Y-115061886D01*
X139931097Y-115063241D01*
X139911762Y-115066710D01*
X139892779Y-115072315D01*
X139882932Y-115076157D01*
X139869032Y-115082713D01*
X139856299Y-115090167D01*
X139844209Y-115098883D01*
X139832235Y-115109221D01*
X139825865Y-115115372D01*
X139812498Y-115130166D01*
X139801122Y-115145918D01*
X139791665Y-115162764D01*
X139784056Y-115180837D01*
X139778221Y-115200272D01*
X139776788Y-115206469D01*
X139775589Y-115213745D01*
X139774718Y-115222599D01*
X139774180Y-115232456D01*
X139773979Y-115242741D01*
X139588003Y-115242741D01*
X139605800Y-115219065D01*
X139634097Y-115185018D01*
X139664013Y-115152401D01*
X139695492Y-115121275D01*
X139728476Y-115091702D01*
X139762907Y-115063743D01*
X139798730Y-115037461D01*
X139835887Y-115012918D01*
X139874320Y-114990175D01*
X139913973Y-114969294D01*
X139954789Y-114950336D01*
X139960818Y-114947743D01*
X140002745Y-114931121D01*
X140045362Y-114916645D01*
X140088577Y-114904326D01*
X140132297Y-114894176D01*
X140176431Y-114886206D01*
X140220887Y-114880428D01*
X140265572Y-114876853D01*
X140310393Y-114875494D01*
X140355260Y-114876361D01*
G37*
D12*
%TO.C,C6*%
X129617836Y-132880000D02*
X129402164Y-132880000D01*
X129617836Y-133600000D02*
X129402164Y-133600000D01*
%TO.C,C5*%
X129707836Y-135845000D02*
X129492164Y-135845000D01*
X129707836Y-136565000D02*
X129492164Y-136565000D01*
%TO.C,R1*%
X126380000Y-122328641D02*
X126380000Y-122021359D01*
X127140000Y-122328641D02*
X127140000Y-122021359D01*
%TO.C,C1*%
X123315000Y-128387836D02*
X123315000Y-128172164D01*
X124035000Y-128387836D02*
X124035000Y-128172164D01*
%TO.C,J2*%
X123150000Y-115505000D02*
X123150000Y-118005000D01*
X123150000Y-118005000D02*
X124200000Y-118005000D01*
X127200000Y-113535000D02*
X124320000Y-113535000D01*
X127320000Y-118005000D02*
X127320000Y-118995000D01*
X128370000Y-115505000D02*
X128370000Y-118005000D01*
X128370000Y-118005000D02*
X127320000Y-118005000D01*
%TO.C,R4*%
X135225000Y-129298641D02*
X135225000Y-128991359D01*
X135985000Y-129298641D02*
X135985000Y-128991359D01*
%TO.C,R2*%
X124380000Y-122021359D02*
X124380000Y-122328641D01*
X125140000Y-122021359D02*
X125140000Y-122328641D01*
D13*
%TO.C,U1*%
X125130000Y-128545000D02*
X125130000Y-128965000D01*
X125130000Y-128545000D02*
X125210000Y-128545000D01*
X125130000Y-130345000D02*
X125130000Y-129925000D01*
X125130000Y-130345000D02*
X125210000Y-130345000D01*
X126530000Y-128545000D02*
X126450000Y-128545000D01*
X126530000Y-128545000D02*
X126530000Y-128965000D01*
X126530000Y-130345000D02*
X126450000Y-130345000D01*
X126530000Y-130345000D02*
X126530000Y-129925000D01*
X126950000Y-129645000D02*
G75*
G02*
X126870000Y-129645000I-40000J0D01*
G01*
X126870000Y-129645000D02*
G75*
G02*
X126950000Y-129645000I40000J0D01*
G01*
D12*
%TO.C,C3*%
X131250000Y-128402836D02*
X131250000Y-128187164D01*
X131970000Y-128402836D02*
X131970000Y-128187164D01*
D13*
%TO.C,U2*%
X132915000Y-128555000D02*
X132915000Y-128975000D01*
X132915000Y-128555000D02*
X132995000Y-128555000D01*
X132915000Y-130355000D02*
X132915000Y-129935000D01*
X132915000Y-130355000D02*
X132995000Y-130355000D01*
X134315000Y-128555000D02*
X134235000Y-128555000D01*
X134315000Y-128555000D02*
X134315000Y-128975000D01*
X134315000Y-130355000D02*
X134235000Y-130355000D01*
X134315000Y-130355000D02*
X134315000Y-129935000D01*
X134735000Y-129655000D02*
G75*
G02*
X134655000Y-129655000I-40000J0D01*
G01*
X134655000Y-129655000D02*
G75*
G02*
X134735000Y-129655000I40000J0D01*
G01*
D12*
%TO.C,C4*%
X131250000Y-130507164D02*
X131250000Y-130722836D01*
X131970000Y-130507164D02*
X131970000Y-130722836D01*
%TO.C,C2*%
X123315000Y-130502164D02*
X123315000Y-130717836D01*
X124035000Y-130502164D02*
X124035000Y-130717836D01*
%TO.C,SW1*%
D13*
X139272500Y-127270000D02*
X142022500Y-127270000D01*
X142022500Y-120620000D01*
X139272500Y-120620000D01*
X139272500Y-127270000D01*
%TO.C,U3*%
X129050000Y-134015000D02*
X129050000Y-135115000D01*
X129485000Y-134015000D02*
X129715000Y-134015000D01*
X129715000Y-135115000D02*
X129485000Y-135115000D01*
X130150000Y-135115000D02*
X130150000Y-134015000D01*
X129950000Y-133765000D02*
G75*
G02*
X129910000Y-133765000I-20000J0D01*
G01*
X129910000Y-133765000D02*
G75*
G02*
X129950000Y-133765000I20000J0D01*
G01*
D12*
%TO.C,R3*%
X127350000Y-129288641D02*
X127350000Y-128981359D01*
X128110000Y-129288641D02*
X128110000Y-128981359D01*
%TD*%
M02*
