%TF.GenerationSoftware,KiCad,Pcbnew,9.0.3*%
%TF.CreationDate,2025-08-15T19:30:48-04:00*%
%TF.ProjectId,M.2-to-Serial-RPI-3P-Debug-UART,4d2e322d-746f-42d5-9365-7269616c2d52,rev?*%
%TF.SameCoordinates,Original*%
%TF.FileFunction,Copper,L1,Top*%
%TF.FilePolarity,Positive*%
%FSLAX46Y46*%
G04 Gerber Fmt 4.6, Leading zero omitted, Abs format (unit mm)*
G04 Created by KiCad (PCBNEW 9.0.3) date 2025-08-15 19:30:48*
%MOMM*%
%LPD*%
G01*
G04 APERTURE LIST*
G04 Aperture macros list*
%AMRoundRect*
0 Rectangle with rounded corners*
0 $1 Rounding radius*
0 $2 $3 $4 $5 $6 $7 $8 $9 X,Y pos of 4 corners*
0 Add a 4 corners polygon primitive as box body*
4,1,4,$2,$3,$4,$5,$6,$7,$8,$9,$2,$3,0*
0 Add four circle primitives for the rounded corners*
1,1,$1+$1,$2,$3*
1,1,$1+$1,$4,$5*
1,1,$1+$1,$6,$7*
1,1,$1+$1,$8,$9*
0 Add four rect primitives between the rounded corners*
20,1,$1+$1,$2,$3,$4,$5,0*
20,1,$1+$1,$4,$5,$6,$7,0*
20,1,$1+$1,$6,$7,$8,$9,0*
20,1,$1+$1,$8,$9,$2,$3,0*%
%AMRotRect*
0 Rectangle, with rotation*
0 The origin of the aperture is its center*
0 $1 length*
0 $2 width*
0 $3 Rotation angle, in degrees counterclockwise*
0 Add horizontal line*
21,1,$1,$2,0,0,$3*%
%AMFreePoly0*
4,1,6,0.180000,0.075000,0.000000,-0.105000,-0.180000,-0.105000,-0.180000,0.105000,0.180000,0.105000,0.180000,0.075000,0.180000,0.075000,$1*%
%AMFreePoly1*
4,1,6,0.180000,-0.075000,0.180000,-0.105000,-0.180000,-0.105000,-0.180000,0.105000,0.000000,0.105000,0.180000,-0.075000,0.180000,-0.075000,$1*%
%AMFreePoly2*
4,1,6,0.180000,-0.105000,-0.180000,-0.105000,-0.180000,-0.075000,0.000000,0.105000,0.180000,0.105000,0.180000,-0.105000,0.180000,-0.105000,$1*%
%AMFreePoly3*
4,1,6,0.180000,-0.105000,0.000000,-0.105000,-0.180000,0.075000,-0.180000,0.105000,0.180000,0.105000,0.180000,-0.105000,0.180000,-0.105000,$1*%
G04 Aperture macros list end*
%TA.AperFunction,SMDPad,CuDef*%
%ADD10RoundRect,0.140000X0.140000X0.170000X-0.140000X0.170000X-0.140000X-0.170000X0.140000X-0.170000X0*%
%TD*%
%TA.AperFunction,ConnectorPad*%
%ADD11R,0.350000X1.700000*%
%TD*%
%TA.AperFunction,CastellatedPad*%
%ADD12C,5.500000*%
%TD*%
%TA.AperFunction,SMDPad,CuDef*%
%ADD13RoundRect,0.135000X0.185000X-0.135000X0.185000X0.135000X-0.185000X0.135000X-0.185000X-0.135000X0*%
%TD*%
%TA.AperFunction,SMDPad,CuDef*%
%ADD14RoundRect,0.140000X0.170000X-0.140000X0.170000X0.140000X-0.170000X0.140000X-0.170000X-0.140000X0*%
%TD*%
%TA.AperFunction,SMDPad,CuDef*%
%ADD15RoundRect,0.150000X0.150000X0.625000X-0.150000X0.625000X-0.150000X-0.625000X0.150000X-0.625000X0*%
%TD*%
%TA.AperFunction,SMDPad,CuDef*%
%ADD16RoundRect,0.250000X0.350000X0.650000X-0.350000X0.650000X-0.350000X-0.650000X0.350000X-0.650000X0*%
%TD*%
%TA.AperFunction,SMDPad,CuDef*%
%ADD17RoundRect,0.135000X-0.185000X0.135000X-0.185000X-0.135000X0.185000X-0.135000X0.185000X0.135000X0*%
%TD*%
%TA.AperFunction,SMDPad,CuDef*%
%ADD18RoundRect,0.050000X0.300000X-0.050000X0.300000X0.050000X-0.300000X0.050000X-0.300000X-0.050000X0*%
%TD*%
%TA.AperFunction,SMDPad,CuDef*%
%ADD19RoundRect,0.050000X0.250000X-0.050000X0.250000X0.050000X-0.250000X0.050000X-0.250000X-0.050000X0*%
%TD*%
%TA.AperFunction,SMDPad,CuDef*%
%ADD20RoundRect,0.050000X0.050000X0.250000X-0.050000X0.250000X-0.050000X-0.250000X0.050000X-0.250000X0*%
%TD*%
%TA.AperFunction,SMDPad,CuDef*%
%ADD21RoundRect,0.140000X-0.170000X0.140000X-0.170000X-0.140000X0.170000X-0.140000X0.170000X0.140000X0*%
%TD*%
%TA.AperFunction,SMDPad,CuDef*%
%ADD22R,1.250000X0.900000*%
%TD*%
%TA.AperFunction,SMDPad,CuDef*%
%ADD23R,0.900000X0.800000*%
%TD*%
%TA.AperFunction,SMDPad,CuDef*%
%ADD24FreePoly0,270.000000*%
%TD*%
%TA.AperFunction,SMDPad,CuDef*%
%ADD25FreePoly1,270.000000*%
%TD*%
%TA.AperFunction,SMDPad,CuDef*%
%ADD26FreePoly2,270.000000*%
%TD*%
%TA.AperFunction,SMDPad,CuDef*%
%ADD27FreePoly3,270.000000*%
%TD*%
%TA.AperFunction,SMDPad,CuDef*%
%ADD28RotRect,0.480000X0.480000X315.000000*%
%TD*%
%TA.AperFunction,ViaPad*%
%ADD29C,0.600000*%
%TD*%
%TA.AperFunction,ViaPad*%
%ADD30C,0.450000*%
%TD*%
%TA.AperFunction,Conductor*%
%ADD31C,0.200000*%
%TD*%
G04 APERTURE END LIST*
D10*
%TO.P,C6,1*%
%TO.N,+1V8*%
X129990000Y-133240000D03*
%TO.P,C6,2*%
%TO.N,GND*%
X129030000Y-133240000D03*
%TD*%
D11*
%TO.P,J1,1,GND*%
%TO.N,GND*%
X141755000Y-141490000D03*
%TO.P,J1,3,USB_D+*%
%TO.N,unconnected-(J1-USB_D+-Pad3)*%
X141255000Y-141490000D03*
%TO.P,J1,5,USB_D-*%
%TO.N,unconnected-(J1-USB_D--Pad5)*%
X140755000Y-141490000D03*
%TO.P,J1,7,GND*%
%TO.N,GND*%
X140255000Y-141490000D03*
%TO.P,J1,9,SDIO_CLK*%
%TO.N,unconnected-(J1-SDIO_CLK-Pad9)*%
X139755000Y-141490000D03*
%TO.P,J1,11,SDIO_CMD*%
%TO.N,unconnected-(J1-SDIO_CMD-Pad11)*%
X139255000Y-141490000D03*
%TO.P,J1,13,SDIO_DATA0*%
%TO.N,unconnected-(J1-SDIO_DATA0-Pad13)*%
X138755000Y-141490000D03*
%TO.P,J1,15,SDIO_DATA1*%
%TO.N,unconnected-(J1-SDIO_DATA1-Pad15)*%
X138255000Y-141490000D03*
%TO.P,J1,17,SDIO_DATA2*%
%TO.N,unconnected-(J1-SDIO_DATA2-Pad17)*%
X137755000Y-141490000D03*
%TO.P,J1,19,SDIO_DATA3*%
%TO.N,unconnected-(J1-SDIO_DATA3-Pad19)*%
X137255000Y-141490000D03*
%TO.P,J1,21,SDIO_WAKE#*%
%TO.N,unconnected-(J1-SDIO_WAKE#-Pad21)*%
X136755000Y-141490000D03*
%TO.P,J1,23,SDIO_RESET#*%
%TO.N,unconnected-(J1-SDIO_RESET#-Pad23)*%
X136255000Y-141490000D03*
%TO.P,J1,33,GND*%
%TO.N,GND*%
X133755000Y-141490000D03*
%TO.P,J1,35,PERn0*%
%TO.N,unconnected-(J1-PERn0-Pad35)*%
X133255000Y-141490000D03*
%TO.P,J1,37,PERp0*%
%TO.N,unconnected-(J1-PERp0-Pad37)*%
X132755000Y-141490000D03*
%TO.P,J1,39,GND*%
%TO.N,GND*%
X132255000Y-141490000D03*
%TO.P,J1,41,PETp0*%
%TO.N,unconnected-(J1-PETp0-Pad41)*%
X131755000Y-141490000D03*
%TO.P,J1,43,PETn0*%
%TO.N,unconnected-(J1-PETn0-Pad43)*%
X131255000Y-141490000D03*
%TO.P,J1,45,GND*%
%TO.N,GND*%
X130755000Y-141490000D03*
%TO.P,J1,47,REFCLKp0*%
%TO.N,unconnected-(J1-REFCLKp0-Pad47)*%
X130255000Y-141490000D03*
%TO.P,J1,49,REFCLKn0*%
%TO.N,unconnected-(J1-REFCLKn0-Pad49)*%
X129755000Y-141490000D03*
%TO.P,J1,51,GND*%
%TO.N,GND*%
X129255000Y-141490000D03*
%TO.P,J1,53,CLKREQ0#*%
%TO.N,unconnected-(J1-CLKREQ0#-Pad53)*%
X128755000Y-141490000D03*
%TO.P,J1,55,PEWAKE0#*%
%TO.N,unconnected-(J1-PEWAKE0#-Pad55)*%
X128255000Y-141490000D03*
%TO.P,J1,57,GND*%
%TO.N,GND*%
X127755000Y-141490000D03*
%TO.P,J1,59,RESERVED/PERp1*%
%TO.N,unconnected-(J1-RESERVED{slash}PERp1-Pad59)*%
X127255000Y-141490000D03*
%TO.P,J1,61,RESERVED/PERn0*%
%TO.N,unconnected-(J1-RESERVED{slash}PERn0-Pad61)*%
X126755000Y-141490000D03*
%TO.P,J1,63,GND*%
%TO.N,GND*%
X126255000Y-141490000D03*
%TO.P,J1,65,RESERVED/PETp1*%
%TO.N,unconnected-(J1-RESERVED{slash}PETp1-Pad65)*%
X125755000Y-141490000D03*
%TO.P,J1,67,RESERVED/PETn1*%
%TO.N,unconnected-(J1-RESERVED{slash}PETn1-Pad67)*%
X125255000Y-141490000D03*
%TO.P,J1,69,GND*%
%TO.N,GND*%
X124755000Y-141490000D03*
%TO.P,J1,71,RESERVED/REFCLKp1*%
%TO.N,unconnected-(J1-RESERVED{slash}REFCLKp1-Pad71)*%
X124255000Y-141490000D03*
%TO.P,J1,73,RESERVED/REFCLKn1*%
%TO.N,unconnected-(J1-RESERVED{slash}REFCLKn1-Pad73)*%
X123755000Y-141490000D03*
%TO.P,J1,75,GND*%
%TO.N,GND*%
X123255000Y-141490000D03*
%TD*%
D12*
%TO.P,H1,1,1*%
%TO.N,GND*%
X132505000Y-112640000D03*
%TD*%
D10*
%TO.P,C5,1*%
%TO.N,+3.3V*%
X130080000Y-136205000D03*
%TO.P,C5,2*%
%TO.N,GND*%
X129120000Y-136205000D03*
%TD*%
D13*
%TO.P,R1,1*%
%TO.N,SIGA*%
X126760000Y-122685000D03*
%TO.P,R1,2*%
%TO.N,Net-(J2-Pin_1)*%
X126760000Y-121665000D03*
%TD*%
D14*
%TO.P,C1,1*%
%TO.N,GND*%
X123675000Y-128760000D03*
%TO.P,C1,2*%
%TO.N,+3.3V*%
X123675000Y-127800000D03*
%TD*%
D15*
%TO.P,J2,1,Pin_1*%
%TO.N,Net-(J2-Pin_1)*%
X126760000Y-118220000D03*
%TO.P,J2,2,Pin_2*%
%TO.N,GND*%
X125760000Y-118220000D03*
%TO.P,J2,3,Pin_3*%
%TO.N,Net-(J2-Pin_3)*%
X124760000Y-118220000D03*
D16*
%TO.P,J2,MP,MountPin*%
%TO.N,GND*%
X128060000Y-114345000D03*
X123460000Y-114345000D03*
%TD*%
D13*
%TO.P,R4,1*%
%TO.N,+1V8*%
X135605000Y-129655000D03*
%TO.P,R4,2*%
%TO.N,~{Host_Mode}*%
X135605000Y-128635000D03*
%TD*%
D17*
%TO.P,R2,1*%
%TO.N,Net-(J2-Pin_3)*%
X124760000Y-121665000D03*
%TO.P,R2,2*%
%TO.N,SIGB*%
X124760000Y-122685000D03*
%TD*%
D18*
%TO.P,U1,1,DIR2*%
%TO.N,+1V8*%
X126380000Y-129645000D03*
D19*
%TO.P,U1,2,~{OE}*%
%TO.N,~{Target_Mode}*%
X126430000Y-129245000D03*
D20*
%TO.P,U1,3,GND*%
%TO.N,GND*%
X126230000Y-128645000D03*
%TO.P,U1,4,B2*%
%TO.N,SIGB*%
X125830000Y-128645000D03*
%TO.P,U1,5,B1*%
%TO.N,SIGA*%
X125430000Y-128645000D03*
D19*
%TO.P,U1,6,V_{CCB}*%
%TO.N,+3.3V*%
X125230000Y-129245000D03*
%TO.P,U1,7,V_{CCA}*%
%TO.N,+1V8*%
X125230000Y-129645000D03*
D20*
%TO.P,U1,8,A1*%
%TO.N,M2_RX*%
X125430000Y-130245000D03*
%TO.P,U1,9,A2*%
%TO.N,M2_TX*%
X125830000Y-130245000D03*
%TO.P,U1,10,DIR1*%
%TO.N,GND*%
X126230000Y-130245000D03*
%TD*%
D14*
%TO.P,C3,1*%
%TO.N,GND*%
X131610000Y-128775000D03*
%TO.P,C3,2*%
%TO.N,+3.3V*%
X131610000Y-127815000D03*
%TD*%
D18*
%TO.P,U2,1,DIR2*%
%TO.N,+1V8*%
X134165000Y-129655000D03*
D19*
%TO.P,U2,2,~{OE}*%
%TO.N,~{Host_Mode}*%
X134215000Y-129255000D03*
D20*
%TO.P,U2,3,GND*%
%TO.N,GND*%
X134015000Y-128655000D03*
%TO.P,U2,4,B2*%
%TO.N,SIGA*%
X133615000Y-128655000D03*
%TO.P,U2,5,B1*%
%TO.N,SIGB*%
X133215000Y-128655000D03*
D19*
%TO.P,U2,6,V_{CCB}*%
%TO.N,+3.3V*%
X133015000Y-129255000D03*
%TO.P,U2,7,V_{CCA}*%
%TO.N,+1V8*%
X133015000Y-129655000D03*
D20*
%TO.P,U2,8,A1*%
%TO.N,M2_RX*%
X133215000Y-130255000D03*
%TO.P,U2,9,A2*%
%TO.N,M2_TX*%
X133615000Y-130255000D03*
%TO.P,U2,10,DIR1*%
%TO.N,GND*%
X134015000Y-130255000D03*
%TD*%
D21*
%TO.P,C4,1*%
%TO.N,GND*%
X131610000Y-130135000D03*
%TO.P,C4,2*%
%TO.N,+1V8*%
X131610000Y-131095000D03*
%TD*%
%TO.P,C2,1*%
%TO.N,GND*%
X123675000Y-130130000D03*
%TO.P,C2,2*%
%TO.N,+1V8*%
X123675000Y-131090000D03*
%TD*%
D22*
%TO.P,SW1,1,A*%
%TO.N,~{Host_Mode}*%
X138572500Y-126195000D03*
%TO.P,SW1,2,B*%
%TO.N,GND*%
X138572500Y-123195000D03*
%TO.P,SW1,3,C*%
%TO.N,~{Target_Mode}*%
X138572500Y-121695000D03*
D23*
%TO.P,SW1,MP,MP*%
%TO.N,GND*%
X139597500Y-127745000D03*
X141697500Y-127745000D03*
X139597500Y-120145000D03*
X141697500Y-120145000D03*
%TD*%
D24*
%TO.P,U3,1,OUT*%
%TO.N,+1V8*%
X129925000Y-134135000D03*
D25*
%TO.P,U3,2,GND*%
%TO.N,GND*%
X129275000Y-134135000D03*
D26*
%TO.P,U3,3,EN*%
%TO.N,+3.3V*%
X129275000Y-134995000D03*
D27*
%TO.P,U3,4,IN*%
X129925000Y-134995000D03*
D28*
%TO.P,U3,5,TP*%
%TO.N,GND*%
X129600000Y-134565000D03*
%TD*%
D13*
%TO.P,R3,1*%
%TO.N,+1V8*%
X127730000Y-129645000D03*
%TO.P,R3,2*%
%TO.N,~{Target_Mode}*%
X127730000Y-128625000D03*
%TD*%
D29*
%TO.N,+3.3V*%
X123675000Y-126755000D03*
X129800000Y-129480000D03*
X131280000Y-136210000D03*
%TO.N,GND*%
X135050000Y-125505000D03*
X125770000Y-114985000D03*
X138630000Y-138520000D03*
D30*
X123675000Y-129445000D03*
D29*
X132020000Y-135260000D03*
X127650000Y-132095000D03*
X131385000Y-132680000D03*
D30*
X131610000Y-129455000D03*
D29*
X125210000Y-137745000D03*
X135110000Y-138095000D03*
X131425000Y-139210000D03*
X122695000Y-125300000D03*
X127415000Y-135130000D03*
X127695000Y-125505000D03*
%TO.N,M2_RX*%
X132630000Y-131540000D03*
X125430000Y-132310000D03*
%TO.N,M2_TX*%
X134005000Y-138090000D03*
D30*
%TO.N,SIGB*%
X125830000Y-126815000D03*
X132865000Y-126810000D03*
X124760000Y-124055000D03*
D29*
%TO.N,~{Target_Mode}*%
X135705000Y-121695000D03*
X130305000Y-126050000D03*
%TD*%
D31*
%TO.N,+3.3V*%
X124455000Y-128855000D02*
X124845000Y-129245000D01*
X133012500Y-129255000D02*
X132597500Y-129255000D01*
X129945000Y-129480000D02*
X131610000Y-127815000D01*
X129275000Y-134995000D02*
X129435411Y-135155411D01*
X131275000Y-136205000D02*
X131280000Y-136210000D01*
X132482500Y-128355000D02*
X131942500Y-127815000D01*
X129764589Y-135155411D02*
X129925000Y-134995000D01*
X129800000Y-129480000D02*
X129945000Y-129480000D01*
X123675000Y-127800000D02*
X123675000Y-126755000D01*
X129435411Y-135155411D02*
X129764589Y-135155411D01*
X124845000Y-129245000D02*
X125230000Y-129245000D01*
X130080000Y-136205000D02*
X130080000Y-135150000D01*
X132482500Y-129140000D02*
X132482500Y-128355000D01*
X131942500Y-127815000D02*
X131607500Y-127815000D01*
X130080000Y-135150000D02*
X129925000Y-134995000D01*
X124455000Y-128580000D02*
X123675000Y-127800000D01*
X132597500Y-129255000D02*
X132482500Y-129140000D01*
X124455000Y-128855000D02*
X124455000Y-128580000D01*
X130080000Y-136205000D02*
X131275000Y-136205000D01*
%TO.N,+1V8*%
X124455000Y-130035000D02*
X124455000Y-130310000D01*
X130015000Y-134045000D02*
X129925000Y-134135000D01*
X130015000Y-131850000D02*
X130015000Y-132960000D01*
X124455000Y-130310000D02*
X123675000Y-131090000D01*
X133015000Y-129655000D02*
X134165000Y-129655000D01*
X131945000Y-131095000D02*
X131610000Y-131095000D01*
X127810000Y-129645000D02*
X130015000Y-131850000D01*
X135605000Y-129655000D02*
X134165000Y-129655000D01*
X130015000Y-132960000D02*
X130015000Y-134045000D01*
X124455000Y-130035000D02*
X124845000Y-129645000D01*
X124845000Y-129645000D02*
X125230000Y-129645000D01*
X132485000Y-129770000D02*
X132485000Y-130555000D01*
X125230000Y-129645000D02*
X126380000Y-129645000D01*
X127730000Y-129645000D02*
X126380000Y-129645000D01*
X132600000Y-129655000D02*
X132485000Y-129770000D01*
X127730000Y-129645000D02*
X127810000Y-129645000D01*
X132485000Y-130555000D02*
X131945000Y-131095000D01*
X130015000Y-132690000D02*
X130015000Y-132960000D01*
X133015000Y-129655000D02*
X132600000Y-129655000D01*
X131610000Y-131095000D02*
X130015000Y-132690000D01*
%TO.N,M2_RX*%
X133215000Y-130955000D02*
X132630000Y-131540000D01*
X133215000Y-130255000D02*
X133215000Y-130955000D01*
X125430000Y-132310000D02*
X125430000Y-130245000D01*
%TO.N,M2_TX*%
X133615000Y-130255000D02*
X133615000Y-137700000D01*
X128275000Y-138090000D02*
X134005000Y-138090000D01*
X133615000Y-137700000D02*
X134005000Y-138090000D01*
X125830000Y-131105000D02*
X126135000Y-131410000D01*
X126135000Y-135950000D02*
X128275000Y-138090000D01*
X126135000Y-131410000D02*
X126135000Y-135950000D01*
X125830000Y-130245000D02*
X125830000Y-131105000D01*
%TO.N,Net-(J2-Pin_1)*%
X126760000Y-118220000D02*
X126760000Y-121665000D01*
%TO.N,Net-(J2-Pin_3)*%
X124760000Y-121665000D02*
X124760000Y-118220000D01*
%TO.N,SIGA*%
X125430000Y-128260000D02*
X124920000Y-127750000D01*
X125430000Y-128645000D02*
X125430000Y-128260000D01*
X126760000Y-123120000D02*
X127765000Y-124125000D01*
X126760000Y-122685000D02*
X126760000Y-123120000D01*
X124920000Y-124794999D02*
X126760000Y-122954999D01*
X124920000Y-127750000D02*
X124920000Y-124794999D01*
X133615000Y-126300000D02*
X133615000Y-128655000D01*
X131440000Y-124125000D02*
X133615000Y-126300000D01*
X126760000Y-122954999D02*
X126760000Y-122685000D01*
X127765000Y-124125000D02*
X131440000Y-124125000D01*
%TO.N,SIGB*%
X124760000Y-122685000D02*
X124760000Y-124055000D01*
X133215000Y-127160000D02*
X132865000Y-126810000D01*
X125830000Y-128645000D02*
X125830000Y-126815000D01*
X133215000Y-128655000D02*
X133215000Y-127160000D01*
%TO.N,~{Target_Mode}*%
X127730000Y-128625000D02*
X130305000Y-126050000D01*
X135705000Y-121695000D02*
X138572500Y-121695000D01*
X126430000Y-129245000D02*
X127110000Y-129245000D01*
X127110000Y-129245000D02*
X127730000Y-128625000D01*
%TO.N,~{Host_Mode}*%
X135605000Y-128635000D02*
X136132500Y-128635000D01*
X136132500Y-128635000D02*
X138572500Y-126195000D01*
X134215000Y-129255000D02*
X134985000Y-129255000D01*
X134985000Y-129255000D02*
X135605000Y-128635000D01*
%TD*%
%TA.AperFunction,Conductor*%
%TO.N,GND*%
G36*
X127253215Y-129964407D02*
G01*
X127265028Y-129974496D01*
X127265934Y-129975402D01*
X127265935Y-129975404D01*
X127349596Y-130059065D01*
X127349597Y-130059065D01*
X127349598Y-130059066D01*
X127456824Y-130109067D01*
X127456825Y-130109067D01*
X127456827Y-130109068D01*
X127505684Y-130115500D01*
X127814521Y-130115500D01*
X127872712Y-130134407D01*
X127884525Y-130144496D01*
X129685504Y-131945475D01*
X129713281Y-131999992D01*
X129714500Y-132015479D01*
X129714500Y-132694414D01*
X129695593Y-132752605D01*
X129657342Y-132784137D01*
X129651686Y-132786774D01*
X129566774Y-132871686D01*
X129516029Y-132980510D01*
X129516028Y-132980511D01*
X129509500Y-133030100D01*
X129509500Y-133449896D01*
X129509501Y-133449907D01*
X129516027Y-133499486D01*
X129516027Y-133499488D01*
X129566774Y-133608313D01*
X129566775Y-133608314D01*
X129566776Y-133608316D01*
X129651684Y-133693224D01*
X129651685Y-133693224D01*
X129656342Y-133697881D01*
X129684119Y-133752398D01*
X129674548Y-133812830D01*
X129663740Y-133829609D01*
X129634851Y-133865835D01*
X129634850Y-133865836D01*
X129614500Y-133955000D01*
X129614500Y-134134999D01*
X129626031Y-134202870D01*
X129626031Y-134202871D01*
X129626032Y-134202872D01*
X129628650Y-134207038D01*
X129640448Y-134234080D01*
X129644979Y-134250988D01*
X129684540Y-134319511D01*
X129740489Y-134375460D01*
X129798644Y-134409035D01*
X129813390Y-134419449D01*
X129816376Y-134421996D01*
X129854690Y-134460310D01*
X129893953Y-134488169D01*
X129897313Y-134491035D01*
X129911119Y-134513533D01*
X129926871Y-134534711D01*
X129926922Y-134539285D01*
X129929315Y-134543185D01*
X129927260Y-134569501D01*
X129927556Y-134595892D01*
X129924909Y-134599622D01*
X129924553Y-134604184D01*
X129907422Y-134624266D01*
X129892149Y-134645792D01*
X129885737Y-134650181D01*
X129854695Y-134669685D01*
X129854687Y-134669692D01*
X129819144Y-134705234D01*
X129798642Y-134720965D01*
X129740489Y-134754539D01*
X129670003Y-134825025D01*
X129615486Y-134852802D01*
X129555054Y-134843230D01*
X129529997Y-134825025D01*
X129459513Y-134754542D01*
X129459511Y-134754540D01*
X129401353Y-134720963D01*
X129380853Y-134705233D01*
X129345313Y-134669693D01*
X129345312Y-134669692D01*
X129345310Y-134669690D01*
X129289163Y-134629851D01*
X129200000Y-134609500D01*
X129170000Y-134609500D01*
X129169998Y-134609500D01*
X129124272Y-134614651D01*
X129041872Y-134654334D01*
X128984850Y-134725837D01*
X128964500Y-134815000D01*
X128964500Y-135175001D01*
X128969651Y-135220727D01*
X129009334Y-135303127D01*
X129080837Y-135360149D01*
X129170000Y-135380500D01*
X129197750Y-135380500D01*
X129247250Y-135393764D01*
X129319418Y-135435430D01*
X129319422Y-135435432D01*
X129395846Y-135455910D01*
X129395848Y-135455911D01*
X129395849Y-135455911D01*
X129680500Y-135455911D01*
X129695412Y-135460756D01*
X129711093Y-135460756D01*
X129723778Y-135469972D01*
X129738691Y-135474818D01*
X129747907Y-135487503D01*
X129760593Y-135496720D01*
X129765438Y-135511632D01*
X129774655Y-135524318D01*
X129779500Y-135554911D01*
X129779500Y-135673760D01*
X129760593Y-135731951D01*
X129747236Y-135745079D01*
X129747809Y-135745652D01*
X129741685Y-135751775D01*
X129741684Y-135751776D01*
X129693452Y-135800008D01*
X129656774Y-135836686D01*
X129606029Y-135945510D01*
X129606028Y-135945511D01*
X129599500Y-135995100D01*
X129599500Y-136414896D01*
X129599501Y-136414907D01*
X129606027Y-136464486D01*
X129606027Y-136464488D01*
X129656774Y-136573313D01*
X129656775Y-136573314D01*
X129656776Y-136573316D01*
X129741684Y-136658224D01*
X129850513Y-136708972D01*
X129900099Y-136715500D01*
X130259900Y-136715499D01*
X130309487Y-136708972D01*
X130309488Y-136708972D01*
X130379359Y-136676390D01*
X130418316Y-136658224D01*
X130503224Y-136573316D01*
X130508192Y-136562659D01*
X130549921Y-136517913D01*
X130597917Y-136505500D01*
X130826678Y-136505500D01*
X130884869Y-136524407D01*
X130896681Y-136534496D01*
X130972685Y-136610499D01*
X130972690Y-136610503D01*
X131086810Y-136676390D01*
X131086808Y-136676390D01*
X131086812Y-136676391D01*
X131086814Y-136676392D01*
X131214108Y-136710500D01*
X131214110Y-136710500D01*
X131345890Y-136710500D01*
X131345892Y-136710500D01*
X131473186Y-136676392D01*
X131473188Y-136676390D01*
X131473190Y-136676390D01*
X131587309Y-136610503D01*
X131587309Y-136610502D01*
X131587314Y-136610500D01*
X131680500Y-136517314D01*
X131711000Y-136464487D01*
X131746390Y-136403190D01*
X131746390Y-136403188D01*
X131746392Y-136403186D01*
X131780500Y-136275892D01*
X131780500Y-136144108D01*
X131746392Y-136016814D01*
X131746390Y-136016811D01*
X131746390Y-136016809D01*
X131680503Y-135902690D01*
X131680501Y-135902688D01*
X131680500Y-135902686D01*
X131587314Y-135809500D01*
X131587311Y-135809498D01*
X131587309Y-135809496D01*
X131473189Y-135743609D01*
X131473191Y-135743609D01*
X131423799Y-135730375D01*
X131345892Y-135709500D01*
X131214108Y-135709500D01*
X131136200Y-135730375D01*
X131086809Y-135743609D01*
X130972690Y-135809496D01*
X130972689Y-135809497D01*
X130972686Y-135809499D01*
X130972686Y-135809500D01*
X130906680Y-135875505D01*
X130852166Y-135903281D01*
X130836679Y-135904500D01*
X130597917Y-135904500D01*
X130539726Y-135885593D01*
X130524289Y-135871681D01*
X130514427Y-135860709D01*
X130503224Y-135836684D01*
X130418316Y-135751776D01*
X130415206Y-135750326D01*
X130405872Y-135739941D01*
X130397819Y-135721813D01*
X130385886Y-135705969D01*
X130382930Y-135688294D01*
X130381034Y-135684025D01*
X130381697Y-135680918D01*
X130380500Y-135673760D01*
X130380500Y-135110437D01*
X130380499Y-135110435D01*
X130360021Y-135034011D01*
X130360019Y-135034007D01*
X130320460Y-134965489D01*
X130264511Y-134909539D01*
X130264511Y-134909540D01*
X130264496Y-134909525D01*
X130236719Y-134855008D01*
X130235500Y-134839521D01*
X130235500Y-134815000D01*
X130230348Y-134769272D01*
X130190666Y-134686873D01*
X130169119Y-134669690D01*
X130136469Y-134643652D01*
X130102763Y-134592588D01*
X130105508Y-134531465D01*
X130143656Y-134483628D01*
X130155235Y-134477058D01*
X130158127Y-134475666D01*
X130215149Y-134404163D01*
X130235500Y-134315000D01*
X130235500Y-134289128D01*
X130252914Y-134235531D01*
X130252216Y-134235128D01*
X130254112Y-134231843D01*
X130254407Y-134230937D01*
X130255414Y-134229588D01*
X130255456Y-134229514D01*
X130255460Y-134229511D01*
X130270840Y-134202872D01*
X130295021Y-134160989D01*
X130315500Y-134084562D01*
X130315500Y-133747047D01*
X130334407Y-133688856D01*
X130344490Y-133677049D01*
X130413224Y-133608316D01*
X130463972Y-133499487D01*
X130470500Y-133449901D01*
X130470499Y-133030100D01*
X130463972Y-132980513D01*
X130463972Y-132980511D01*
X130413225Y-132871686D01*
X130413224Y-132871685D01*
X130413224Y-132871684D01*
X130405756Y-132864216D01*
X130377981Y-132809702D01*
X130387552Y-132749270D01*
X130405755Y-132724214D01*
X131525475Y-131604495D01*
X131579992Y-131576718D01*
X131595479Y-131575499D01*
X131819897Y-131575499D01*
X131819900Y-131575499D01*
X131869487Y-131568972D01*
X131869488Y-131568972D01*
X131986166Y-131514564D01*
X131987422Y-131517258D01*
X132032202Y-131503555D01*
X132090059Y-131523459D01*
X132125167Y-131573570D01*
X132129500Y-131602540D01*
X132129500Y-131605892D01*
X132145469Y-131665489D01*
X132163609Y-131733190D01*
X132229496Y-131847309D01*
X132229498Y-131847311D01*
X132229500Y-131847314D01*
X132322686Y-131940500D01*
X132322688Y-131940501D01*
X132322690Y-131940503D01*
X132436810Y-132006390D01*
X132436808Y-132006390D01*
X132436812Y-132006391D01*
X132436814Y-132006392D01*
X132564108Y-132040500D01*
X132564110Y-132040500D01*
X132695890Y-132040500D01*
X132695892Y-132040500D01*
X132823186Y-132006392D01*
X132823188Y-132006390D01*
X132823190Y-132006390D01*
X132937309Y-131940503D01*
X132937309Y-131940502D01*
X132937314Y-131940500D01*
X133030500Y-131847314D01*
X133030503Y-131847309D01*
X133096390Y-131733190D01*
X133096390Y-131733188D01*
X133096392Y-131733186D01*
X133119873Y-131645549D01*
X133153197Y-131594237D01*
X133210319Y-131572310D01*
X133269419Y-131588145D01*
X133307924Y-131635695D01*
X133314500Y-131671174D01*
X133314500Y-137690500D01*
X133295593Y-137748691D01*
X133246093Y-137784655D01*
X133215500Y-137789500D01*
X128440479Y-137789500D01*
X128382288Y-137770593D01*
X128370475Y-137760504D01*
X126464496Y-135854525D01*
X126436719Y-135800008D01*
X126435500Y-135784521D01*
X126435500Y-131370437D01*
X126435499Y-131370435D01*
X126415021Y-131294011D01*
X126415019Y-131294007D01*
X126375460Y-131225489D01*
X126319511Y-131169539D01*
X126319511Y-131169540D01*
X126159496Y-131009525D01*
X126131719Y-130955008D01*
X126130500Y-130939521D01*
X126130500Y-130044500D01*
X126149407Y-129986309D01*
X126198907Y-129950345D01*
X126229500Y-129945500D01*
X126340438Y-129945500D01*
X127195024Y-129945500D01*
X127253215Y-129964407D01*
G37*
%TD.AperFunction*%
%TA.AperFunction,Conductor*%
G36*
X126722444Y-123514267D02*
G01*
X126747499Y-123532470D01*
X127580489Y-124365460D01*
X127580491Y-124365461D01*
X127580493Y-124365463D01*
X127649008Y-124405020D01*
X127649006Y-124405020D01*
X127649010Y-124405021D01*
X127649012Y-124405022D01*
X127725438Y-124425500D01*
X131274521Y-124425500D01*
X131332712Y-124444407D01*
X131344525Y-124454496D01*
X133146479Y-126256450D01*
X133174256Y-126310967D01*
X133164685Y-126371399D01*
X133121420Y-126414664D01*
X133060988Y-126424235D01*
X133035547Y-126415226D01*
X133035235Y-126415981D01*
X133029242Y-126413498D01*
X132987251Y-126402247D01*
X132921018Y-126384500D01*
X132808982Y-126384500D01*
X132742748Y-126402247D01*
X132700758Y-126413498D01*
X132603739Y-126469513D01*
X132524513Y-126548739D01*
X132468498Y-126645758D01*
X132455652Y-126693700D01*
X132439500Y-126753982D01*
X132439500Y-126866018D01*
X132451466Y-126910676D01*
X132468498Y-126974241D01*
X132519345Y-127062309D01*
X132524515Y-127071263D01*
X132603737Y-127150485D01*
X132603739Y-127150486D01*
X132700759Y-127206501D01*
X132700757Y-127206501D01*
X132700761Y-127206502D01*
X132700763Y-127206503D01*
X132808982Y-127235500D01*
X132815500Y-127235500D01*
X132873691Y-127254407D01*
X132909655Y-127303907D01*
X132914500Y-127334500D01*
X132914500Y-128132773D01*
X132895593Y-128190964D01*
X132846093Y-128226928D01*
X132784907Y-128226928D01*
X132735407Y-128190964D01*
X132729764Y-128182274D01*
X132722960Y-128170489D01*
X132705752Y-128153281D01*
X132667011Y-128114539D01*
X132667011Y-128114540D01*
X132127011Y-127574540D01*
X132127008Y-127574538D01*
X132127004Y-127574534D01*
X132121865Y-127570591D01*
X132123030Y-127569072D01*
X132088975Y-127531906D01*
X132063225Y-127476686D01*
X132063224Y-127476685D01*
X132063224Y-127476684D01*
X131978316Y-127391776D01*
X131978314Y-127391775D01*
X131978313Y-127391774D01*
X131869489Y-127341029D01*
X131869488Y-127341028D01*
X131852958Y-127338852D01*
X131819901Y-127334500D01*
X131819899Y-127334500D01*
X131400103Y-127334500D01*
X131400092Y-127334501D01*
X131350513Y-127341027D01*
X131350511Y-127341027D01*
X131241686Y-127391774D01*
X131156774Y-127476686D01*
X131106029Y-127585510D01*
X131106028Y-127585511D01*
X131099500Y-127635100D01*
X131099500Y-127859520D01*
X131080593Y-127917711D01*
X131070504Y-127929524D01*
X130028266Y-128971761D01*
X129973749Y-128999538D01*
X129932641Y-128997384D01*
X129865894Y-128979500D01*
X129865892Y-128979500D01*
X129734108Y-128979500D01*
X129656200Y-129000375D01*
X129606809Y-129013609D01*
X129492690Y-129079496D01*
X129399496Y-129172690D01*
X129333609Y-129286809D01*
X129333608Y-129286814D01*
X129299500Y-129414108D01*
X129299500Y-129545892D01*
X129310110Y-129585489D01*
X129333609Y-129673190D01*
X129399496Y-129787309D01*
X129399498Y-129787311D01*
X129399500Y-129787314D01*
X129492686Y-129880500D01*
X129492688Y-129880501D01*
X129492690Y-129880503D01*
X129606810Y-129946390D01*
X129606808Y-129946390D01*
X129606812Y-129946391D01*
X129606814Y-129946392D01*
X129734108Y-129980500D01*
X129734110Y-129980500D01*
X129865890Y-129980500D01*
X129865892Y-129980500D01*
X129993186Y-129946392D01*
X129993188Y-129946390D01*
X129993190Y-129946390D01*
X130107309Y-129880503D01*
X130107309Y-129880502D01*
X130107314Y-129880500D01*
X130200500Y-129787314D01*
X130200503Y-129787309D01*
X130266390Y-129673190D01*
X130266390Y-129673188D01*
X130266392Y-129673186D01*
X130292324Y-129576401D01*
X130317945Y-129532024D01*
X131525475Y-128324495D01*
X131579992Y-128296718D01*
X131595479Y-128295499D01*
X131819897Y-128295499D01*
X131819900Y-128295499D01*
X131829175Y-128294278D01*
X131869482Y-128288973D01*
X131869483Y-128288972D01*
X131869487Y-128288972D01*
X131889872Y-128279465D01*
X131950599Y-128272009D01*
X132001715Y-128299186D01*
X132153004Y-128450475D01*
X132180781Y-128504992D01*
X132182000Y-128520479D01*
X132182000Y-129179564D01*
X132202478Y-129255988D01*
X132202479Y-129255989D01*
X132218976Y-129284562D01*
X132242040Y-129324511D01*
X132307170Y-129389641D01*
X132310221Y-129393349D01*
X132319736Y-129417573D01*
X132331552Y-129440762D01*
X132330774Y-129445670D01*
X132332592Y-129450297D01*
X132326052Y-129475486D01*
X132321981Y-129501194D01*
X132317931Y-129506768D01*
X132317217Y-129509520D01*
X132314024Y-129512146D01*
X132303785Y-129526242D01*
X132300499Y-129529529D01*
X132244539Y-129585489D01*
X132204980Y-129654007D01*
X132204978Y-129654011D01*
X132184500Y-129730435D01*
X132184500Y-130389521D01*
X132165593Y-130447712D01*
X132155503Y-130459525D01*
X132003419Y-130611608D01*
X131948903Y-130639385D01*
X131891578Y-130631329D01*
X131869487Y-130621028D01*
X131869488Y-130621028D01*
X131852958Y-130618852D01*
X131819901Y-130614500D01*
X131819899Y-130614500D01*
X131400103Y-130614500D01*
X131400092Y-130614501D01*
X131350513Y-130621027D01*
X131350511Y-130621027D01*
X131241686Y-130671774D01*
X131156774Y-130756686D01*
X131106029Y-130865510D01*
X131106028Y-130865511D01*
X131099500Y-130915100D01*
X131099500Y-131139520D01*
X131080593Y-131197711D01*
X131070504Y-131209524D01*
X130469312Y-131810715D01*
X130414795Y-131838492D01*
X130354363Y-131828921D01*
X130311098Y-131785656D01*
X130303683Y-131766340D01*
X130295021Y-131734011D01*
X130255460Y-131665489D01*
X130235522Y-131645551D01*
X130199511Y-131609539D01*
X130199511Y-131609540D01*
X128279496Y-129689525D01*
X128251719Y-129635008D01*
X128250500Y-129619521D01*
X128250500Y-129470685D01*
X128250500Y-129470684D01*
X128244068Y-129421827D01*
X128242084Y-129417573D01*
X128194066Y-129314598D01*
X128194065Y-129314597D01*
X128194065Y-129314596D01*
X128110404Y-129230935D01*
X128097085Y-129224724D01*
X128052337Y-129182997D01*
X128040662Y-129122936D01*
X128066519Y-129067483D01*
X128097084Y-129045275D01*
X128110404Y-129039065D01*
X128194065Y-128955404D01*
X128244068Y-128848173D01*
X128250500Y-128799316D01*
X128250500Y-128570478D01*
X128269407Y-128512287D01*
X128279490Y-128500480D01*
X130200474Y-126579495D01*
X130254991Y-126551719D01*
X130270478Y-126550500D01*
X130370890Y-126550500D01*
X130370892Y-126550500D01*
X130498186Y-126516392D01*
X130498188Y-126516390D01*
X130498190Y-126516390D01*
X130612309Y-126450503D01*
X130612309Y-126450502D01*
X130612314Y-126450500D01*
X130705500Y-126357314D01*
X130761432Y-126260437D01*
X130771390Y-126243190D01*
X130771390Y-126243188D01*
X130771392Y-126243186D01*
X130805500Y-126115892D01*
X130805500Y-125984108D01*
X130771392Y-125856814D01*
X130771390Y-125856811D01*
X130771390Y-125856809D01*
X130705503Y-125742690D01*
X130705501Y-125742688D01*
X130705500Y-125742686D01*
X130612314Y-125649500D01*
X130612311Y-125649498D01*
X130612309Y-125649496D01*
X130498189Y-125583609D01*
X130498191Y-125583609D01*
X130448799Y-125570375D01*
X130370892Y-125549500D01*
X130239108Y-125549500D01*
X130161200Y-125570375D01*
X130111809Y-125583609D01*
X129997690Y-125649496D01*
X129904496Y-125742690D01*
X129838609Y-125856809D01*
X129804500Y-125984109D01*
X129804500Y-126084520D01*
X129785593Y-126142711D01*
X129775504Y-126154524D01*
X127804525Y-128125504D01*
X127750008Y-128153281D01*
X127734521Y-128154500D01*
X127505684Y-128154500D01*
X127489398Y-128156644D01*
X127456825Y-128160932D01*
X127456824Y-128160932D01*
X127349598Y-128210933D01*
X127265933Y-128294598D01*
X127215932Y-128401824D01*
X127215932Y-128401825D01*
X127209500Y-128450685D01*
X127209500Y-128679521D01*
X127190593Y-128737712D01*
X127180504Y-128749525D01*
X127014525Y-128915504D01*
X126960008Y-128943281D01*
X126944521Y-128944500D01*
X126229500Y-128944500D01*
X126171309Y-128925593D01*
X126135345Y-128876093D01*
X126130500Y-128845500D01*
X126130500Y-127157255D01*
X126149407Y-127099064D01*
X126159490Y-127087257D01*
X126170485Y-127076263D01*
X126226503Y-126979237D01*
X126255500Y-126871018D01*
X126255500Y-126758982D01*
X126226503Y-126650763D01*
X126226501Y-126650760D01*
X126226501Y-126650758D01*
X126175145Y-126561809D01*
X126170485Y-126553737D01*
X126091263Y-126474515D01*
X126082603Y-126469515D01*
X125994240Y-126418498D01*
X125994242Y-126418498D01*
X125952251Y-126407247D01*
X125886018Y-126389500D01*
X125773982Y-126389500D01*
X125707748Y-126407247D01*
X125665758Y-126418498D01*
X125568739Y-126474513D01*
X125489513Y-126553739D01*
X125433498Y-126650758D01*
X125415127Y-126719323D01*
X125381803Y-126770637D01*
X125324681Y-126792564D01*
X125265581Y-126776728D01*
X125227076Y-126729179D01*
X125220500Y-126693700D01*
X125220500Y-124960477D01*
X125239407Y-124902286D01*
X125249490Y-124890479D01*
X126607497Y-123532471D01*
X126662012Y-123504696D01*
X126722444Y-123514267D01*
G37*
%TD.AperFunction*%
%TA.AperFunction,Conductor*%
G36*
X143083691Y-113039407D02*
G01*
X143119655Y-113088907D01*
X143124500Y-113119500D01*
X143124500Y-138160500D01*
X143105593Y-138218691D01*
X143056093Y-138254655D01*
X143025500Y-138259500D01*
X142843275Y-138259500D01*
X142673168Y-138293337D01*
X142673166Y-138293337D01*
X142512931Y-138359708D01*
X142512919Y-138359714D01*
X142368714Y-138456071D01*
X142368710Y-138456074D01*
X142246074Y-138578710D01*
X142246071Y-138578714D01*
X142149714Y-138722919D01*
X142149708Y-138722931D01*
X142083337Y-138883166D01*
X142083337Y-138883168D01*
X142049500Y-139053275D01*
X142049500Y-140616000D01*
X142030593Y-140674191D01*
X141981093Y-140710155D01*
X141950500Y-140715000D01*
X141729500Y-140715000D01*
X141671309Y-140696093D01*
X141635345Y-140646593D01*
X141631924Y-140624994D01*
X141630976Y-140625088D01*
X141630500Y-140620261D01*
X141630500Y-140620252D01*
X141618867Y-140561769D01*
X141574552Y-140495448D01*
X141574548Y-140495445D01*
X141508233Y-140451134D01*
X141508231Y-140451133D01*
X141508228Y-140451132D01*
X141508227Y-140451132D01*
X141449758Y-140439501D01*
X141449748Y-140439500D01*
X141060252Y-140439500D01*
X141060247Y-140439500D01*
X141024313Y-140446648D01*
X140985687Y-140446648D01*
X140949752Y-140439500D01*
X140949748Y-140439500D01*
X140560252Y-140439500D01*
X140560251Y-140439500D01*
X140560241Y-140439501D01*
X140501772Y-140451132D01*
X140501766Y-140451134D01*
X140435451Y-140495445D01*
X140435445Y-140495451D01*
X140391134Y-140561766D01*
X140391132Y-140561772D01*
X140379501Y-140620241D01*
X140379024Y-140625088D01*
X140376623Y-140624851D01*
X140374655Y-140630911D01*
X140374655Y-140646593D01*
X140365438Y-140659278D01*
X140360593Y-140674191D01*
X140347907Y-140683407D01*
X140338691Y-140696093D01*
X140323778Y-140700938D01*
X140311093Y-140710155D01*
X140280500Y-140715000D01*
X140229500Y-140715000D01*
X140171309Y-140696093D01*
X140135345Y-140646593D01*
X140131924Y-140624994D01*
X140130976Y-140625088D01*
X140130500Y-140620261D01*
X140130500Y-140620252D01*
X140118867Y-140561769D01*
X140074552Y-140495448D01*
X140074548Y-140495445D01*
X140008233Y-140451134D01*
X140008231Y-140451133D01*
X140008228Y-140451132D01*
X140008227Y-140451132D01*
X139949758Y-140439501D01*
X139949748Y-140439500D01*
X139560252Y-140439500D01*
X139560247Y-140439500D01*
X139524313Y-140446648D01*
X139485687Y-140446648D01*
X139449752Y-140439500D01*
X139449748Y-140439500D01*
X139060252Y-140439500D01*
X139060247Y-140439500D01*
X139024313Y-140446648D01*
X138985687Y-140446648D01*
X138949752Y-140439500D01*
X138949748Y-140439500D01*
X138560252Y-140439500D01*
X138560247Y-140439500D01*
X138524313Y-140446648D01*
X138485687Y-140446648D01*
X138449752Y-140439500D01*
X138449748Y-140439500D01*
X138060252Y-140439500D01*
X138060247Y-140439500D01*
X138024313Y-140446648D01*
X137985687Y-140446648D01*
X137949752Y-140439500D01*
X137949748Y-140439500D01*
X137560252Y-140439500D01*
X137560247Y-140439500D01*
X137524313Y-140446648D01*
X137485687Y-140446648D01*
X137449752Y-140439500D01*
X137449748Y-140439500D01*
X137060252Y-140439500D01*
X137060247Y-140439500D01*
X137024313Y-140446648D01*
X136985687Y-140446648D01*
X136949752Y-140439500D01*
X136949748Y-140439500D01*
X136560252Y-140439500D01*
X136560247Y-140439500D01*
X136524313Y-140446648D01*
X136485687Y-140446648D01*
X136449752Y-140439500D01*
X136449748Y-140439500D01*
X136204500Y-140439500D01*
X136146309Y-140420593D01*
X136110345Y-140371093D01*
X136105500Y-140340500D01*
X136105500Y-139649142D01*
X136072111Y-139470526D01*
X136072111Y-139470524D01*
X136006468Y-139301081D01*
X135910808Y-139146585D01*
X135788389Y-139012297D01*
X135643378Y-138902790D01*
X135480715Y-138821794D01*
X135305938Y-138772065D01*
X135305940Y-138772065D01*
X135125000Y-138755299D01*
X134944060Y-138772065D01*
X134805048Y-138811618D01*
X134769285Y-138821794D01*
X134769284Y-138821794D01*
X134769282Y-138821795D01*
X134606629Y-138902786D01*
X134606620Y-138902791D01*
X134461610Y-139012298D01*
X134339192Y-139146584D01*
X134339190Y-139146587D01*
X134243535Y-139301075D01*
X134243532Y-139301080D01*
X134177888Y-139470526D01*
X134144500Y-139649142D01*
X134144500Y-140616000D01*
X134125593Y-140674191D01*
X134076093Y-140710155D01*
X134045500Y-140715000D01*
X133729500Y-140715000D01*
X133671309Y-140696093D01*
X133635345Y-140646593D01*
X133631924Y-140624994D01*
X133630976Y-140625088D01*
X133630500Y-140620261D01*
X133630500Y-140620252D01*
X133618867Y-140561769D01*
X133574552Y-140495448D01*
X133574548Y-140495445D01*
X133508233Y-140451134D01*
X133508231Y-140451133D01*
X133508228Y-140451132D01*
X133508227Y-140451132D01*
X133449758Y-140439501D01*
X133449748Y-140439500D01*
X133060252Y-140439500D01*
X133060247Y-140439500D01*
X133024313Y-140446648D01*
X132985687Y-140446648D01*
X132949752Y-140439500D01*
X132949748Y-140439500D01*
X132560252Y-140439500D01*
X132560251Y-140439500D01*
X132560241Y-140439501D01*
X132501772Y-140451132D01*
X132501766Y-140451134D01*
X132435451Y-140495445D01*
X132435445Y-140495451D01*
X132391134Y-140561766D01*
X132391132Y-140561772D01*
X132379501Y-140620241D01*
X132379024Y-140625088D01*
X132376623Y-140624851D01*
X132374655Y-140630911D01*
X132374655Y-140646593D01*
X132365438Y-140659278D01*
X132360593Y-140674191D01*
X132347907Y-140683407D01*
X132338691Y-140696093D01*
X132323778Y-140700938D01*
X132311093Y-140710155D01*
X132280500Y-140715000D01*
X132229500Y-140715000D01*
X132171309Y-140696093D01*
X132135345Y-140646593D01*
X132131924Y-140624994D01*
X132130976Y-140625088D01*
X132130500Y-140620261D01*
X132130500Y-140620252D01*
X132118867Y-140561769D01*
X132074552Y-140495448D01*
X132074548Y-140495445D01*
X132008233Y-140451134D01*
X132008231Y-140451133D01*
X132008228Y-140451132D01*
X132008227Y-140451132D01*
X131949758Y-140439501D01*
X131949748Y-140439500D01*
X131560252Y-140439500D01*
X131560247Y-140439500D01*
X131524313Y-140446648D01*
X131485687Y-140446648D01*
X131449752Y-140439500D01*
X131449748Y-140439500D01*
X131060252Y-140439500D01*
X131060251Y-140439500D01*
X131060241Y-140439501D01*
X131001772Y-140451132D01*
X131001766Y-140451134D01*
X130935451Y-140495445D01*
X130935445Y-140495451D01*
X130891134Y-140561766D01*
X130891132Y-140561772D01*
X130879501Y-140620241D01*
X130879024Y-140625088D01*
X130876623Y-140624851D01*
X130874655Y-140630911D01*
X130874655Y-140646593D01*
X130865438Y-140659278D01*
X130860593Y-140674191D01*
X130847907Y-140683407D01*
X130838691Y-140696093D01*
X130823778Y-140700938D01*
X130811093Y-140710155D01*
X130780500Y-140715000D01*
X130729500Y-140715000D01*
X130671309Y-140696093D01*
X130635345Y-140646593D01*
X130631924Y-140624994D01*
X130630976Y-140625088D01*
X130630500Y-140620261D01*
X130630500Y-140620252D01*
X130618867Y-140561769D01*
X130574552Y-140495448D01*
X130574548Y-140495445D01*
X130508233Y-140451134D01*
X130508231Y-140451133D01*
X130508228Y-140451132D01*
X130508227Y-140451132D01*
X130449758Y-140439501D01*
X130449748Y-140439500D01*
X130060252Y-140439500D01*
X130060247Y-140439500D01*
X130024313Y-140446648D01*
X129985687Y-140446648D01*
X129949752Y-140439500D01*
X129949748Y-140439500D01*
X129560252Y-140439500D01*
X129560251Y-140439500D01*
X129560241Y-140439501D01*
X129501772Y-140451132D01*
X129501766Y-140451134D01*
X129435451Y-140495445D01*
X129435445Y-140495451D01*
X129391134Y-140561766D01*
X129391132Y-140561772D01*
X129379501Y-140620241D01*
X129379024Y-140625088D01*
X129376623Y-140624851D01*
X129374655Y-140630911D01*
X129374655Y-140646593D01*
X129365438Y-140659278D01*
X129360593Y-140674191D01*
X129347907Y-140683407D01*
X129338691Y-140696093D01*
X129323778Y-140700938D01*
X129311093Y-140710155D01*
X129280500Y-140715000D01*
X129229500Y-140715000D01*
X129171309Y-140696093D01*
X129135345Y-140646593D01*
X129131924Y-140624994D01*
X129130976Y-140625088D01*
X129130500Y-140620261D01*
X129130500Y-140620252D01*
X129118867Y-140561769D01*
X129074552Y-140495448D01*
X129074548Y-140495445D01*
X129008233Y-140451134D01*
X129008231Y-140451133D01*
X129008228Y-140451132D01*
X129008227Y-140451132D01*
X128949758Y-140439501D01*
X128949748Y-140439500D01*
X128560252Y-140439500D01*
X128560247Y-140439500D01*
X128524313Y-140446648D01*
X128485687Y-140446648D01*
X128449752Y-140439500D01*
X128449748Y-140439500D01*
X128060252Y-140439500D01*
X128060251Y-140439500D01*
X128060241Y-140439501D01*
X128001772Y-140451132D01*
X128001766Y-140451134D01*
X127935451Y-140495445D01*
X127935445Y-140495451D01*
X127891134Y-140561766D01*
X127891132Y-140561772D01*
X127879501Y-140620241D01*
X127879024Y-140625088D01*
X127876623Y-140624851D01*
X127874655Y-140630911D01*
X127874655Y-140646593D01*
X127865438Y-140659278D01*
X127860593Y-140674191D01*
X127847907Y-140683407D01*
X127838691Y-140696093D01*
X127823778Y-140700938D01*
X127811093Y-140710155D01*
X127780500Y-140715000D01*
X127729500Y-140715000D01*
X127671309Y-140696093D01*
X127635345Y-140646593D01*
X127631924Y-140624994D01*
X127630976Y-140625088D01*
X127630500Y-140620261D01*
X127630500Y-140620252D01*
X127618867Y-140561769D01*
X127574552Y-140495448D01*
X127574548Y-140495445D01*
X127508233Y-140451134D01*
X127508231Y-140451133D01*
X127508228Y-140451132D01*
X127508227Y-140451132D01*
X127449758Y-140439501D01*
X127449748Y-140439500D01*
X127060252Y-140439500D01*
X127060247Y-140439500D01*
X127024313Y-140446648D01*
X126985687Y-140446648D01*
X126949752Y-140439500D01*
X126949748Y-140439500D01*
X126560252Y-140439500D01*
X126560251Y-140439500D01*
X126560241Y-140439501D01*
X126501772Y-140451132D01*
X126501766Y-140451134D01*
X126435451Y-140495445D01*
X126435445Y-140495451D01*
X126391134Y-140561766D01*
X126391132Y-140561772D01*
X126379501Y-140620241D01*
X126379024Y-140625088D01*
X126376623Y-140624851D01*
X126374655Y-140630911D01*
X126374655Y-140646593D01*
X126365438Y-140659278D01*
X126360593Y-140674191D01*
X126347907Y-140683407D01*
X126338691Y-140696093D01*
X126323778Y-140700938D01*
X126311093Y-140710155D01*
X126280500Y-140715000D01*
X126229500Y-140715000D01*
X126171309Y-140696093D01*
X126135345Y-140646593D01*
X126131924Y-140624994D01*
X126130976Y-140625088D01*
X126130500Y-140620261D01*
X126130500Y-140620252D01*
X126118867Y-140561769D01*
X126074552Y-140495448D01*
X126074548Y-140495445D01*
X126008233Y-140451134D01*
X126008231Y-140451133D01*
X126008228Y-140451132D01*
X126008227Y-140451132D01*
X125949758Y-140439501D01*
X125949748Y-140439500D01*
X125560252Y-140439500D01*
X125560247Y-140439500D01*
X125524313Y-140446648D01*
X125485687Y-140446648D01*
X125449752Y-140439500D01*
X125449748Y-140439500D01*
X125060252Y-140439500D01*
X125060251Y-140439500D01*
X125060241Y-140439501D01*
X125001772Y-140451132D01*
X125001766Y-140451134D01*
X124935451Y-140495445D01*
X124935445Y-140495451D01*
X124891134Y-140561766D01*
X124891132Y-140561772D01*
X124879501Y-140620241D01*
X124879024Y-140625088D01*
X124876623Y-140624851D01*
X124874655Y-140630911D01*
X124874655Y-140646593D01*
X124865438Y-140659278D01*
X124860593Y-140674191D01*
X124847907Y-140683407D01*
X124838691Y-140696093D01*
X124823778Y-140700938D01*
X124811093Y-140710155D01*
X124780500Y-140715000D01*
X124729500Y-140715000D01*
X124671309Y-140696093D01*
X124635345Y-140646593D01*
X124631924Y-140624994D01*
X124630976Y-140625088D01*
X124630500Y-140620261D01*
X124630500Y-140620252D01*
X124618867Y-140561769D01*
X124574552Y-140495448D01*
X124574548Y-140495445D01*
X124508233Y-140451134D01*
X124508231Y-140451133D01*
X124508228Y-140451132D01*
X124508227Y-140451132D01*
X124449758Y-140439501D01*
X124449748Y-140439500D01*
X124060252Y-140439500D01*
X124060247Y-140439500D01*
X124024313Y-140446648D01*
X123985687Y-140446648D01*
X123949752Y-140439500D01*
X123949748Y-140439500D01*
X123560252Y-140439500D01*
X123560251Y-140439500D01*
X123560241Y-140439501D01*
X123501772Y-140451132D01*
X123501766Y-140451134D01*
X123435451Y-140495445D01*
X123435445Y-140495451D01*
X123391134Y-140561766D01*
X123391132Y-140561772D01*
X123379501Y-140620241D01*
X123379024Y-140625088D01*
X123376623Y-140624851D01*
X123360593Y-140674191D01*
X123311093Y-140710155D01*
X123280500Y-140715000D01*
X123059500Y-140715000D01*
X123001309Y-140696093D01*
X122965345Y-140646593D01*
X122960500Y-140616000D01*
X122960500Y-139053279D01*
X122960499Y-139053275D01*
X122953980Y-139020500D01*
X122926663Y-138883168D01*
X122860289Y-138722927D01*
X122860285Y-138722919D01*
X122805010Y-138640197D01*
X122763929Y-138578714D01*
X122641286Y-138456071D01*
X122586548Y-138419496D01*
X122497080Y-138359714D01*
X122497068Y-138359708D01*
X122336832Y-138293337D01*
X122166724Y-138259500D01*
X122166722Y-138259500D01*
X122130094Y-138259500D01*
X121984500Y-138259500D01*
X121926309Y-138240593D01*
X121890345Y-138191093D01*
X121885500Y-138160500D01*
X121885500Y-127620100D01*
X123164500Y-127620100D01*
X123164500Y-127979895D01*
X123164501Y-127979907D01*
X123171027Y-128029486D01*
X123171027Y-128029488D01*
X123221774Y-128138313D01*
X123221775Y-128138314D01*
X123221776Y-128138316D01*
X123306684Y-128223224D01*
X123415513Y-128273972D01*
X123465099Y-128280500D01*
X123689520Y-128280499D01*
X123747710Y-128299406D01*
X123759524Y-128309495D01*
X124125504Y-128675475D01*
X124153281Y-128729992D01*
X124154500Y-128745479D01*
X124154500Y-128894564D01*
X124174978Y-128970988D01*
X124194350Y-129004540D01*
X124194351Y-129004543D01*
X124214535Y-129039505D01*
X124214538Y-129039508D01*
X124214540Y-129039511D01*
X124550026Y-129374997D01*
X124577802Y-129429512D01*
X124568231Y-129489944D01*
X124550025Y-129515002D01*
X124270489Y-129794539D01*
X124214539Y-129850489D01*
X124174980Y-129919007D01*
X124174978Y-129919011D01*
X124154500Y-129995435D01*
X124154500Y-130144521D01*
X124135593Y-130202712D01*
X124125503Y-130214525D01*
X123759523Y-130580504D01*
X123705007Y-130608281D01*
X123689520Y-130609500D01*
X123465104Y-130609500D01*
X123465092Y-130609501D01*
X123415513Y-130616027D01*
X123415511Y-130616027D01*
X123306686Y-130666774D01*
X123221774Y-130751686D01*
X123171029Y-130860510D01*
X123171028Y-130860511D01*
X123164500Y-130910100D01*
X123164500Y-131269895D01*
X123164501Y-131269907D01*
X123171027Y-131319486D01*
X123171027Y-131319488D01*
X123221774Y-131428313D01*
X123221775Y-131428314D01*
X123221776Y-131428316D01*
X123306684Y-131513224D01*
X123415513Y-131563972D01*
X123465099Y-131570500D01*
X123884900Y-131570499D01*
X123934487Y-131563972D01*
X123934488Y-131563972D01*
X124021367Y-131523459D01*
X124043316Y-131513224D01*
X124128224Y-131428316D01*
X124178972Y-131319487D01*
X124185500Y-131269901D01*
X124185499Y-131045477D01*
X124204406Y-130987288D01*
X124214496Y-130975474D01*
X124438286Y-130751684D01*
X124695460Y-130494511D01*
X124695463Y-130494506D01*
X124735020Y-130425992D01*
X124735020Y-130425990D01*
X124735022Y-130425988D01*
X124755500Y-130349562D01*
X124755500Y-130270438D01*
X124755500Y-130200479D01*
X124774407Y-130142288D01*
X124784496Y-130130475D01*
X124940475Y-129974496D01*
X124947592Y-129970869D01*
X124952288Y-129964407D01*
X124974336Y-129957243D01*
X124994992Y-129946719D01*
X125010479Y-129945500D01*
X125030500Y-129945500D01*
X125088691Y-129964407D01*
X125124655Y-130013907D01*
X125129500Y-130044500D01*
X125129500Y-131861679D01*
X125110593Y-131919870D01*
X125100509Y-131931676D01*
X125057715Y-131974471D01*
X125029497Y-132002689D01*
X125029496Y-132002690D01*
X124963609Y-132116809D01*
X124963608Y-132116814D01*
X124929500Y-132244108D01*
X124929500Y-132375892D01*
X124959579Y-132488151D01*
X124963609Y-132503190D01*
X125029496Y-132617309D01*
X125029498Y-132617311D01*
X125029500Y-132617314D01*
X125122686Y-132710500D01*
X125122688Y-132710501D01*
X125122690Y-132710503D01*
X125236810Y-132776390D01*
X125236808Y-132776390D01*
X125236812Y-132776391D01*
X125236814Y-132776392D01*
X125364108Y-132810500D01*
X125364110Y-132810500D01*
X125495890Y-132810500D01*
X125495892Y-132810500D01*
X125623186Y-132776392D01*
X125623188Y-132776390D01*
X125623190Y-132776390D01*
X125686000Y-132740127D01*
X125745848Y-132727405D01*
X125801744Y-132752292D01*
X125832337Y-132805280D01*
X125834500Y-132825863D01*
X125834500Y-135989564D01*
X125854977Y-136065985D01*
X125854981Y-136065993D01*
X125871156Y-136094011D01*
X125871157Y-136094011D01*
X125871158Y-136094012D01*
X125894540Y-136134511D01*
X128034540Y-138274511D01*
X128034539Y-138274511D01*
X128090489Y-138330460D01*
X128159007Y-138370019D01*
X128159011Y-138370021D01*
X128235435Y-138390499D01*
X128235437Y-138390500D01*
X128235438Y-138390500D01*
X128314562Y-138390500D01*
X133556679Y-138390500D01*
X133614870Y-138409407D01*
X133626676Y-138419490D01*
X133697686Y-138490500D01*
X133697688Y-138490501D01*
X133697690Y-138490503D01*
X133811810Y-138556390D01*
X133811808Y-138556390D01*
X133811812Y-138556391D01*
X133811814Y-138556392D01*
X133939108Y-138590500D01*
X133939110Y-138590500D01*
X134070890Y-138590500D01*
X134070892Y-138590500D01*
X134198186Y-138556392D01*
X134198188Y-138556390D01*
X134198190Y-138556390D01*
X134312309Y-138490503D01*
X134312309Y-138490502D01*
X134312314Y-138490500D01*
X134405500Y-138397314D01*
X134421259Y-138370019D01*
X134471390Y-138283190D01*
X134471390Y-138283188D01*
X134471392Y-138283186D01*
X134505500Y-138155892D01*
X134505500Y-138024108D01*
X134471392Y-137896814D01*
X134471390Y-137896811D01*
X134471390Y-137896809D01*
X134405503Y-137782690D01*
X134405501Y-137782688D01*
X134405500Y-137782686D01*
X134312314Y-137689500D01*
X134312311Y-137689498D01*
X134312309Y-137689496D01*
X134198189Y-137623609D01*
X134198191Y-137623609D01*
X134148799Y-137610375D01*
X134070892Y-137589500D01*
X134014500Y-137589500D01*
X133956309Y-137570593D01*
X133920345Y-137521093D01*
X133915500Y-137490500D01*
X133915500Y-130054500D01*
X133934407Y-129996309D01*
X133983907Y-129960345D01*
X134014500Y-129955500D01*
X134125438Y-129955500D01*
X135070024Y-129955500D01*
X135128215Y-129974407D01*
X135140028Y-129984496D01*
X135140934Y-129985402D01*
X135140935Y-129985404D01*
X135224596Y-130069065D01*
X135224597Y-130069065D01*
X135224598Y-130069066D01*
X135331824Y-130119067D01*
X135331825Y-130119067D01*
X135331827Y-130119068D01*
X135380684Y-130125500D01*
X135380685Y-130125500D01*
X135829314Y-130125500D01*
X135829316Y-130125500D01*
X135878173Y-130119068D01*
X135985404Y-130069065D01*
X136069065Y-129985404D01*
X136119068Y-129878173D01*
X136125500Y-129829316D01*
X136125500Y-129480684D01*
X136119068Y-129431827D01*
X136117988Y-129429512D01*
X136069066Y-129324598D01*
X136069065Y-129324597D01*
X136069065Y-129324596D01*
X135985404Y-129240935D01*
X135972085Y-129234724D01*
X135927337Y-129192997D01*
X135915662Y-129132936D01*
X135941519Y-129077483D01*
X135948664Y-129070555D01*
X135959284Y-129061244D01*
X135985404Y-129049065D01*
X136069065Y-128965404D01*
X136069376Y-128964735D01*
X136074716Y-128960055D01*
X136099977Y-128949207D01*
X136124489Y-128936719D01*
X136130088Y-128936278D01*
X136130937Y-128935914D01*
X136131911Y-128936134D01*
X136139976Y-128935500D01*
X136172063Y-128935500D01*
X136172063Y-128935499D01*
X136248489Y-128915021D01*
X136317011Y-128875460D01*
X136372960Y-128819511D01*
X138317975Y-126874496D01*
X138372492Y-126846719D01*
X138387979Y-126845500D01*
X139217247Y-126845500D01*
X139217248Y-126845500D01*
X139275731Y-126833867D01*
X139342052Y-126789552D01*
X139386367Y-126723231D01*
X139398000Y-126664748D01*
X139398000Y-125725252D01*
X139386367Y-125666769D01*
X139342052Y-125600448D01*
X139342048Y-125600445D01*
X139275733Y-125556134D01*
X139275731Y-125556133D01*
X139275728Y-125556132D01*
X139275727Y-125556132D01*
X139217258Y-125544501D01*
X139217248Y-125544500D01*
X137927752Y-125544500D01*
X137927751Y-125544500D01*
X137927741Y-125544501D01*
X137869272Y-125556132D01*
X137869266Y-125556134D01*
X137802951Y-125600445D01*
X137802945Y-125600451D01*
X137758634Y-125666766D01*
X137758632Y-125666772D01*
X137747001Y-125725241D01*
X137747000Y-125725253D01*
X137747000Y-126554521D01*
X137728093Y-126612712D01*
X137718004Y-126624525D01*
X136123502Y-128219026D01*
X136068985Y-128246803D01*
X136008553Y-128237232D01*
X135992654Y-128225681D01*
X135992499Y-128225903D01*
X135985401Y-128220933D01*
X135878175Y-128170932D01*
X135845601Y-128166644D01*
X135829316Y-128164500D01*
X135380684Y-128164500D01*
X135364398Y-128166644D01*
X135331825Y-128170932D01*
X135331824Y-128170932D01*
X135224598Y-128220933D01*
X135140933Y-128304598D01*
X135090932Y-128411824D01*
X135090932Y-128411825D01*
X135090932Y-128411827D01*
X135085817Y-128450684D01*
X135084500Y-128460685D01*
X135084500Y-128689521D01*
X135065593Y-128747712D01*
X135055504Y-128759525D01*
X134889525Y-128925504D01*
X134835008Y-128953281D01*
X134819521Y-128954500D01*
X134014500Y-128954500D01*
X133956309Y-128935593D01*
X133920345Y-128886093D01*
X133915500Y-128855500D01*
X133915500Y-126260437D01*
X133915499Y-126260435D01*
X133895021Y-126184011D01*
X133895019Y-126184007D01*
X133855460Y-126115489D01*
X133799511Y-126059539D01*
X133799511Y-126059540D01*
X133115975Y-125376004D01*
X139947000Y-125376004D01*
X139947000Y-125513995D01*
X139973920Y-125649327D01*
X139973920Y-125649329D01*
X140026722Y-125776806D01*
X140026728Y-125776817D01*
X140103385Y-125891541D01*
X140200958Y-125989114D01*
X140315682Y-126065771D01*
X140315693Y-126065777D01*
X140360944Y-126084520D01*
X140443172Y-126118580D01*
X140578507Y-126145500D01*
X140578508Y-126145500D01*
X140716492Y-126145500D01*
X140716493Y-126145500D01*
X140851828Y-126118580D01*
X140979311Y-126065775D01*
X141094042Y-125989114D01*
X141191614Y-125891542D01*
X141268275Y-125776811D01*
X141321080Y-125649328D01*
X141348000Y-125513993D01*
X141348000Y-125376007D01*
X141321080Y-125240672D01*
X141268275Y-125113189D01*
X141268274Y-125113187D01*
X141268271Y-125113182D01*
X141191614Y-124998458D01*
X141094041Y-124900885D01*
X140979317Y-124824228D01*
X140979306Y-124824222D01*
X140851828Y-124771420D01*
X140716495Y-124744500D01*
X140716493Y-124744500D01*
X140578507Y-124744500D01*
X140578504Y-124744500D01*
X140443172Y-124771420D01*
X140443170Y-124771420D01*
X140315693Y-124824222D01*
X140315682Y-124824228D01*
X140200958Y-124900885D01*
X140103385Y-124998458D01*
X140026728Y-125113182D01*
X140026722Y-125113193D01*
X139973920Y-125240670D01*
X139973920Y-125240672D01*
X139947000Y-125376004D01*
X133115975Y-125376004D01*
X131624511Y-123884540D01*
X131624508Y-123884538D01*
X131555992Y-123844980D01*
X131555988Y-123844978D01*
X131479564Y-123824500D01*
X131479562Y-123824500D01*
X127930479Y-123824500D01*
X127872288Y-123805593D01*
X127860475Y-123795504D01*
X127222223Y-123157252D01*
X127194446Y-123102735D01*
X127204017Y-123042303D01*
X127222225Y-123017243D01*
X127224065Y-123015404D01*
X127274068Y-122908173D01*
X127280500Y-122859316D01*
X127280500Y-122510684D01*
X127274068Y-122461827D01*
X127234048Y-122376004D01*
X139947000Y-122376004D01*
X139947000Y-122513995D01*
X139973920Y-122649327D01*
X139973920Y-122649329D01*
X140026722Y-122776806D01*
X140026728Y-122776817D01*
X140103385Y-122891541D01*
X140200958Y-122989114D01*
X140315682Y-123065771D01*
X140315693Y-123065777D01*
X140362783Y-123085282D01*
X140443172Y-123118580D01*
X140578507Y-123145500D01*
X140578508Y-123145500D01*
X140716492Y-123145500D01*
X140716493Y-123145500D01*
X140851828Y-123118580D01*
X140979311Y-123065775D01*
X141094042Y-122989114D01*
X141191614Y-122891542D01*
X141268275Y-122776811D01*
X141321080Y-122649328D01*
X141348000Y-122513993D01*
X141348000Y-122376007D01*
X141321080Y-122240672D01*
X141288241Y-122161392D01*
X141268277Y-122113193D01*
X141268271Y-122113182D01*
X141191614Y-121998458D01*
X141094041Y-121900885D01*
X140979317Y-121824228D01*
X140979306Y-121824222D01*
X140851828Y-121771420D01*
X140716495Y-121744500D01*
X140716493Y-121744500D01*
X140578507Y-121744500D01*
X140578504Y-121744500D01*
X140443172Y-121771420D01*
X140443170Y-121771420D01*
X140315693Y-121824222D01*
X140315682Y-121824228D01*
X140200958Y-121900885D01*
X140103385Y-121998458D01*
X140026728Y-122113182D01*
X140026722Y-122113193D01*
X139973920Y-122240670D01*
X139973920Y-122240672D01*
X139947000Y-122376004D01*
X127234048Y-122376004D01*
X127224065Y-122354596D01*
X127140404Y-122270935D01*
X127127085Y-122264724D01*
X127082337Y-122222997D01*
X127070662Y-122162936D01*
X127096519Y-122107483D01*
X127127084Y-122085275D01*
X127140404Y-122079065D01*
X127224065Y-121995404D01*
X127274068Y-121888173D01*
X127280500Y-121839316D01*
X127280500Y-121629108D01*
X135204500Y-121629108D01*
X135204500Y-121760892D01*
X135234579Y-121873151D01*
X135238609Y-121888190D01*
X135304496Y-122002309D01*
X135304498Y-122002311D01*
X135304500Y-122002314D01*
X135397686Y-122095500D01*
X135397688Y-122095501D01*
X135397690Y-122095503D01*
X135511810Y-122161390D01*
X135511808Y-122161390D01*
X135511812Y-122161391D01*
X135511814Y-122161392D01*
X135639108Y-122195500D01*
X135639110Y-122195500D01*
X135770890Y-122195500D01*
X135770892Y-122195500D01*
X135898186Y-122161392D01*
X135898188Y-122161390D01*
X135898190Y-122161390D01*
X136012309Y-122095503D01*
X136012309Y-122095502D01*
X136012314Y-122095500D01*
X136083319Y-122024494D01*
X136137834Y-121996719D01*
X136153321Y-121995500D01*
X137648000Y-121995500D01*
X137706191Y-122014407D01*
X137742155Y-122063907D01*
X137747000Y-122094500D01*
X137747000Y-122164746D01*
X137747001Y-122164758D01*
X137758632Y-122223227D01*
X137758634Y-122223233D01*
X137790508Y-122270935D01*
X137802948Y-122289552D01*
X137869269Y-122333867D01*
X137913731Y-122342711D01*
X137927741Y-122345498D01*
X137927746Y-122345498D01*
X137927752Y-122345500D01*
X137927753Y-122345500D01*
X139217247Y-122345500D01*
X139217248Y-122345500D01*
X139275731Y-122333867D01*
X139342052Y-122289552D01*
X139386367Y-122223231D01*
X139398000Y-122164748D01*
X139398000Y-121225252D01*
X139386367Y-121166769D01*
X139342052Y-121100448D01*
X139342048Y-121100445D01*
X139275733Y-121056134D01*
X139275731Y-121056133D01*
X139275728Y-121056132D01*
X139275727Y-121056132D01*
X139217258Y-121044501D01*
X139217248Y-121044500D01*
X137927752Y-121044500D01*
X137927751Y-121044500D01*
X137927741Y-121044501D01*
X137869272Y-121056132D01*
X137869266Y-121056134D01*
X137802951Y-121100445D01*
X137802945Y-121100451D01*
X137758634Y-121166766D01*
X137758632Y-121166772D01*
X137747001Y-121225241D01*
X137747000Y-121225253D01*
X137747000Y-121295500D01*
X137728093Y-121353691D01*
X137678593Y-121389655D01*
X137648000Y-121394500D01*
X136153321Y-121394500D01*
X136095130Y-121375593D01*
X136083323Y-121365509D01*
X136012314Y-121294500D01*
X136012311Y-121294498D01*
X136012309Y-121294496D01*
X135898189Y-121228609D01*
X135898191Y-121228609D01*
X135824242Y-121208795D01*
X135770892Y-121194500D01*
X135639108Y-121194500D01*
X135585758Y-121208795D01*
X135511809Y-121228609D01*
X135397690Y-121294496D01*
X135304496Y-121387690D01*
X135238609Y-121501809D01*
X135238608Y-121501814D01*
X135204500Y-121629108D01*
X127280500Y-121629108D01*
X127280500Y-121490684D01*
X127274068Y-121441827D01*
X127248823Y-121387690D01*
X127224066Y-121334598D01*
X127224065Y-121334597D01*
X127224065Y-121334596D01*
X127140404Y-121250935D01*
X127140402Y-121250934D01*
X127140401Y-121250933D01*
X127117659Y-121240328D01*
X127072912Y-121198598D01*
X127060500Y-121150604D01*
X127060500Y-119223365D01*
X127079407Y-119165174D01*
X127110108Y-119139389D01*
X127109806Y-119138965D01*
X127115197Y-119135115D01*
X127116020Y-119134423D01*
X127116483Y-119134198D01*
X127199198Y-119051483D01*
X127250573Y-118946393D01*
X127260500Y-118878260D01*
X127260500Y-117561740D01*
X127250573Y-117493607D01*
X127199198Y-117388517D01*
X127116483Y-117305802D01*
X127116481Y-117305801D01*
X127011395Y-117254427D01*
X126984139Y-117250456D01*
X126943260Y-117244500D01*
X126576740Y-117244500D01*
X126542673Y-117249463D01*
X126508604Y-117254427D01*
X126403518Y-117305801D01*
X126320801Y-117388518D01*
X126269427Y-117493604D01*
X126269427Y-117493607D01*
X126259500Y-117561740D01*
X126259500Y-118878260D01*
X126266118Y-118923682D01*
X126269427Y-118946395D01*
X126320801Y-119051481D01*
X126320802Y-119051483D01*
X126403517Y-119134198D01*
X126403978Y-119134423D01*
X126404387Y-119134819D01*
X126410194Y-119138965D01*
X126409572Y-119139835D01*
X126447953Y-119176965D01*
X126459500Y-119223365D01*
X126459500Y-121150604D01*
X126440593Y-121208795D01*
X126402341Y-121240328D01*
X126379598Y-121250933D01*
X126295933Y-121334598D01*
X126245932Y-121441824D01*
X126245932Y-121441825D01*
X126239500Y-121490685D01*
X126239500Y-121839314D01*
X126245932Y-121888174D01*
X126245932Y-121888175D01*
X126295933Y-121995401D01*
X126295934Y-121995402D01*
X126295935Y-121995404D01*
X126379596Y-122079065D01*
X126379597Y-122079065D01*
X126379598Y-122079066D01*
X126392915Y-122085276D01*
X126437663Y-122127005D01*
X126449337Y-122187066D01*
X126423478Y-122242518D01*
X126392915Y-122264724D01*
X126379598Y-122270933D01*
X126295933Y-122354598D01*
X126245932Y-122461824D01*
X126245932Y-122461825D01*
X126245932Y-122461827D01*
X126239500Y-122510684D01*
X126239500Y-122859316D01*
X126245932Y-122908173D01*
X126245933Y-122908175D01*
X126245934Y-122908178D01*
X126259860Y-122938042D01*
X126267317Y-122998772D01*
X126240140Y-123049886D01*
X125329054Y-123960973D01*
X125274537Y-123988750D01*
X125214105Y-123979179D01*
X125170840Y-123935914D01*
X125163424Y-123916595D01*
X125156503Y-123890763D01*
X125152909Y-123884538D01*
X125100485Y-123793736D01*
X125089494Y-123782745D01*
X125061718Y-123728228D01*
X125060500Y-123712744D01*
X125060500Y-123199394D01*
X125079407Y-123141203D01*
X125117662Y-123109669D01*
X125140404Y-123099065D01*
X125224065Y-123015404D01*
X125274068Y-122908173D01*
X125280500Y-122859316D01*
X125280500Y-122510684D01*
X125274068Y-122461827D01*
X125224065Y-122354596D01*
X125140404Y-122270935D01*
X125127085Y-122264724D01*
X125082337Y-122222997D01*
X125070662Y-122162936D01*
X125096519Y-122107483D01*
X125127084Y-122085275D01*
X125140404Y-122079065D01*
X125224065Y-121995404D01*
X125274068Y-121888173D01*
X125280500Y-121839316D01*
X125280500Y-121490684D01*
X125274068Y-121441827D01*
X125248823Y-121387690D01*
X125224066Y-121334598D01*
X125224065Y-121334597D01*
X125224065Y-121334596D01*
X125140404Y-121250935D01*
X125140402Y-121250934D01*
X125140401Y-121250933D01*
X125117659Y-121240328D01*
X125072912Y-121198598D01*
X125060500Y-121150604D01*
X125060500Y-119223365D01*
X125079407Y-119165174D01*
X125110108Y-119139389D01*
X125109806Y-119138965D01*
X125115197Y-119135115D01*
X125116020Y-119134423D01*
X125116483Y-119134198D01*
X125199198Y-119051483D01*
X125250573Y-118946393D01*
X125260500Y-118878260D01*
X125260500Y-117561740D01*
X125250573Y-117493607D01*
X125199198Y-117388517D01*
X125116483Y-117305802D01*
X125116481Y-117305801D01*
X125011395Y-117254427D01*
X124984139Y-117250456D01*
X124943260Y-117244500D01*
X124576740Y-117244500D01*
X124542673Y-117249463D01*
X124508604Y-117254427D01*
X124403518Y-117305801D01*
X124320801Y-117388518D01*
X124269427Y-117493604D01*
X124269427Y-117493607D01*
X124259500Y-117561740D01*
X124259500Y-118878260D01*
X124266118Y-118923682D01*
X124269427Y-118946395D01*
X124320801Y-119051481D01*
X124320802Y-119051483D01*
X124403517Y-119134198D01*
X124403978Y-119134423D01*
X124404387Y-119134819D01*
X124410194Y-119138965D01*
X124409572Y-119139835D01*
X124447953Y-119176965D01*
X124459500Y-119223365D01*
X124459500Y-121150604D01*
X124440593Y-121208795D01*
X124402341Y-121240328D01*
X124379598Y-121250933D01*
X124295933Y-121334598D01*
X124245932Y-121441824D01*
X124245932Y-121441825D01*
X124239500Y-121490685D01*
X124239500Y-121839314D01*
X124245932Y-121888174D01*
X124245932Y-121888175D01*
X124295933Y-121995401D01*
X124295934Y-121995402D01*
X124295935Y-121995404D01*
X124379596Y-122079065D01*
X124379597Y-122079065D01*
X124379598Y-122079066D01*
X124392915Y-122085276D01*
X124437663Y-122127005D01*
X124449337Y-122187066D01*
X124423478Y-122242518D01*
X124392915Y-122264724D01*
X124379598Y-122270933D01*
X124295933Y-122354598D01*
X124245932Y-122461824D01*
X124245932Y-122461825D01*
X124239500Y-122510685D01*
X124239500Y-122859314D01*
X124245932Y-122908174D01*
X124245932Y-122908175D01*
X124295933Y-123015401D01*
X124295934Y-123015402D01*
X124295935Y-123015404D01*
X124379596Y-123099065D01*
X124402337Y-123109669D01*
X124447086Y-123151396D01*
X124459500Y-123199394D01*
X124459500Y-123712744D01*
X124440593Y-123770935D01*
X124430506Y-123782745D01*
X124419514Y-123793736D01*
X124363498Y-123890758D01*
X124363497Y-123890763D01*
X124334500Y-123998982D01*
X124334500Y-124111018D01*
X124360072Y-124206455D01*
X124363498Y-124219241D01*
X124419513Y-124316260D01*
X124419515Y-124316263D01*
X124498737Y-124395485D01*
X124498739Y-124395486D01*
X124595759Y-124451501D01*
X124595757Y-124451501D01*
X124595761Y-124451502D01*
X124595763Y-124451503D01*
X124623327Y-124458888D01*
X124674640Y-124492212D01*
X124696567Y-124549334D01*
X124681833Y-124604320D01*
X124682784Y-124604869D01*
X124680735Y-124608416D01*
X124680731Y-124608434D01*
X124680702Y-124608474D01*
X124639980Y-124679006D01*
X124639978Y-124679010D01*
X124619500Y-124755434D01*
X124619500Y-127789564D01*
X124639978Y-127865987D01*
X124677506Y-127930988D01*
X124677505Y-127930988D01*
X124679538Y-127934508D01*
X124679540Y-127934511D01*
X125100505Y-128355476D01*
X125128281Y-128409991D01*
X125129500Y-128425478D01*
X125129500Y-128845500D01*
X125124655Y-128860411D01*
X125124655Y-128876093D01*
X125115438Y-128888778D01*
X125110593Y-128903691D01*
X125097907Y-128912907D01*
X125088691Y-128925593D01*
X125073778Y-128930438D01*
X125061093Y-128939655D01*
X125030500Y-128944500D01*
X125010479Y-128944500D01*
X124952288Y-128925593D01*
X124940475Y-128915504D01*
X124784496Y-128759525D01*
X124756719Y-128705008D01*
X124755500Y-128689521D01*
X124755500Y-128540440D01*
X124755499Y-128540434D01*
X124754286Y-128535910D01*
X124749759Y-128519011D01*
X124735022Y-128464012D01*
X124735019Y-128464006D01*
X124695463Y-128395493D01*
X124695459Y-128395488D01*
X124214495Y-127914523D01*
X124186718Y-127860007D01*
X124185499Y-127844520D01*
X124185499Y-127620103D01*
X124185498Y-127620092D01*
X124178972Y-127570513D01*
X124178972Y-127570511D01*
X124128225Y-127461686D01*
X124128224Y-127461685D01*
X124128224Y-127461684D01*
X124043316Y-127376776D01*
X124043314Y-127376775D01*
X124043313Y-127376774D01*
X124032659Y-127371806D01*
X124014500Y-127354871D01*
X123994407Y-127340273D01*
X123992477Y-127334333D01*
X123987912Y-127330076D01*
X123975500Y-127282082D01*
X123975500Y-127203321D01*
X123994407Y-127145130D01*
X124004490Y-127133323D01*
X124075500Y-127062314D01*
X124075503Y-127062309D01*
X124141390Y-126948190D01*
X124141390Y-126948188D01*
X124141392Y-126948186D01*
X124175500Y-126820892D01*
X124175500Y-126689108D01*
X124141392Y-126561814D01*
X124141390Y-126561811D01*
X124141390Y-126561809D01*
X124075503Y-126447690D01*
X124075501Y-126447688D01*
X124075500Y-126447686D01*
X123982314Y-126354500D01*
X123982311Y-126354498D01*
X123982309Y-126354496D01*
X123868189Y-126288609D01*
X123868191Y-126288609D01*
X123818799Y-126275375D01*
X123740892Y-126254500D01*
X123609108Y-126254500D01*
X123531200Y-126275375D01*
X123481809Y-126288609D01*
X123367690Y-126354496D01*
X123274496Y-126447690D01*
X123208609Y-126561809D01*
X123208608Y-126561814D01*
X123174500Y-126689108D01*
X123174500Y-126820892D01*
X123187931Y-126871016D01*
X123208609Y-126948190D01*
X123274496Y-127062309D01*
X123274498Y-127062311D01*
X123274500Y-127062314D01*
X123345505Y-127133319D01*
X123349130Y-127140434D01*
X123355593Y-127145130D01*
X123362756Y-127167178D01*
X123373281Y-127187834D01*
X123374500Y-127203321D01*
X123374500Y-127282082D01*
X123355593Y-127340273D01*
X123317341Y-127371806D01*
X123306686Y-127376774D01*
X123221774Y-127461686D01*
X123171029Y-127570510D01*
X123171028Y-127570511D01*
X123164500Y-127620100D01*
X121885500Y-127620100D01*
X121885500Y-113119500D01*
X121904407Y-113061309D01*
X121953907Y-113025345D01*
X121984500Y-113020500D01*
X143025500Y-113020500D01*
X143083691Y-113039407D01*
G37*
%TD.AperFunction*%
%TD*%
M02*
